<?xml version="1.0" encoding="utf-8"?>
<!-- Generator: Adobe Illustrator 23.0.0, SVG Export Plug-In . SVG Version: 6.00 Build 0)  -->
<svg version="1.1" id="Layer_1" xmlns="http://www.w3.org/2000/svg" xmlns:xlink="http://www.w3.org/1999/xlink" x="0px" y="0px"
	 viewBox="0 0 258.4 193.3" style="enable-background:new 0 0 258.4 193.3;" xml:space="preserve">
<style type="text/css">
	.st0{fill:#231F20;}
	.st1{fill:#424143;}
	.st2{fill:#F2F2F2;}
	.st3{fill:#FFFFFF;}
	.st4{fill:none;stroke:#231F20;stroke-width:3;stroke-miterlimit:10;}
	.st5{fill:#231F20;stroke:#FFFFFF;stroke-miterlimit:10;}
	.st6{fill:none;stroke:#F2F2F2;stroke-linecap:round;stroke-linejoin:round;stroke-miterlimit:10;}
	.st7{fill:#06A64F;}
	.st8{fill:#E6E7E7;}
	.st9{fill:#EC2227;}
	.st10{fill:#3DB54A;}
	.st11{fill:#A8AAAD;}
	.st12{font-family:'Quicksand-Bold';}
	.st13{font-size:24.2801px;}
</style>
<path class="st0" d="M241.6,3.9c0,0,16.8,0.9,16.8,18s0,149.9,0,149.9s-0.4,16.4-16.8,17.6c-16.4,1.2-70.4,3.9-108,3.9
	s-107.1-2.7-116.8-4S0,181.6,0,171.6S0,21.8,0,21.8S0.2,5.5,16.7,3.9S104.8,0,129.2,0S241.6,3.9,241.6,3.9z"/>
<path class="st1" d="M129.2,9.3c0,0,97.1,1.7,111.6,4c0,0,7.8,1.6,7.8,8.5s0,146.1,0,149.7s-2.4,7.6-7.6,8.3s-72.3,4-107.8,4
	s-104.2-2.5-116-4c0,0-8-1.6-7.9-8.2s0-147.3,0-149.8s2-8,8-8.6C23.4,12.8,103.8,9.3,129.2,9.3z"/>
<circle class="st0" cx="42.2" cy="62.6" r="6.2"/>
<circle class="st0" cx="113.1" cy="160.3" r="8.7"/>
<circle class="st0" cx="42.2" cy="46.8" r="6.2"/>
<polygon class="st2" points="42.2,43.3 39.1,48.7 45.3,48.7 "/>
<circle class="st0" cx="42.2" cy="78.5" r="6.2"/>
<polygon class="st2" points="42.2,82 45.3,76.6 39.1,76.6 "/>
<circle class="st0" cx="58" cy="62.6" r="6.2"/>
<polygon class="st2" points="61.6,62.6 56.2,59.5 56.2,65.7 "/>
<circle class="st0" cx="26.4" cy="62.6" r="6.2"/>
<polygon class="st2" points="22.9,62.6 28.3,65.7 28.3,59.5 "/>
<path class="st3" d="M39.4,63.6l1-1l1,1c0,0,2.2-3.4,3.6-4l0.1,0.2c0,0-3.2,3.3-3.5,5.4L39.4,63.6z"/>
<g>
	<path class="st3" d="M74.8,29.5c0.3,0.2,0.5,0.5,0.6,0.8c0.1,0.3,0.2,0.7,0.2,1.1s-0.1,0.8-0.2,1.1c-0.1,0.3-0.4,0.6-0.6,0.8
		c-0.3,0.2-0.6,0.3-1,0.3h-1.5c-0.1,0-0.2,0-0.3-0.1s-0.1-0.2-0.1-0.3v-3.6c0-0.1,0-0.2,0.1-0.3c0.1-0.1,0.2-0.1,0.3-0.1h1.5
		C74.2,29.2,74.5,29.3,74.8,29.5z M74.6,32.4c0.2-0.3,0.3-0.6,0.3-1.1c0-0.4-0.1-0.8-0.3-1.1c-0.2-0.3-0.5-0.4-0.8-0.4h-1v3h1
		C74.1,32.9,74.4,32.7,74.6,32.4z"/>
	<path class="st3" d="M79.2,33c0.1,0.1,0.1,0.2,0.1,0.3c0,0.1,0,0.2-0.1,0.3c-0.1,0.1-0.2,0.1-0.3,0.1h-2.1c-0.1,0-0.2,0-0.3-0.1
		s-0.1-0.2-0.1-0.3v-3.6c0-0.1,0-0.2,0.1-0.3c0.1-0.1,0.2-0.1,0.3-0.1h2.1c0.1,0,0.2,0,0.3,0.1c0.1,0.1,0.1,0.2,0.1,0.3
		c0,0.1,0,0.2-0.1,0.3s-0.2,0.1-0.3,0.1h-1.7V31h1.4c0.1,0,0.2,0,0.3,0.1c0.1,0.1,0.1,0.2,0.1,0.3c0,0.1,0,0.2-0.1,0.3
		c-0.1,0.1-0.2,0.1-0.3,0.1h-1.4v1.2h1.7C79,32.9,79.1,32.9,79.2,33z"/>
	<path class="st3" d="M82.8,33c0.1,0.1,0.1,0.2,0.1,0.3c0,0.1,0,0.2-0.1,0.3c-0.1,0.1-0.2,0.1-0.3,0.1h-2.1c-0.1,0-0.2,0-0.3-0.1
		S80,33.3,80,33.2v-3.6c0-0.1,0-0.2,0.1-0.3c0.1-0.1,0.2-0.1,0.3-0.1h2.1c0.1,0,0.2,0,0.3,0.1c0.1,0.1,0.1,0.2,0.1,0.3
		c0,0.1,0,0.2-0.1,0.3s-0.2,0.1-0.3,0.1h-1.7V31h1.4c0.1,0,0.2,0,0.3,0.1c0.1,0.1,0.1,0.2,0.1,0.3c0,0.1,0,0.2-0.1,0.3
		c-0.1,0.1-0.2,0.1-0.3,0.1h-1.4v1.2h1.7C82.6,32.9,82.7,32.9,82.8,33z"/>
	<path class="st3" d="M86.1,29.4c0.2,0.1,0.3,0.3,0.5,0.5c0.1,0.2,0.2,0.5,0.2,0.7c0,0.3-0.1,0.5-0.2,0.7c-0.1,0.2-0.3,0.4-0.5,0.5
		c-0.2,0.1-0.4,0.2-0.6,0.2h-1.1v1.2c0,0.1,0,0.2-0.1,0.3c-0.1,0.1-0.2,0.1-0.3,0.1c-0.1,0-0.2,0-0.3-0.1c-0.1-0.1-0.1-0.2-0.1-0.3
		v-3.6c0-0.1,0-0.2,0.1-0.3c0.1-0.1,0.2-0.1,0.3-0.1h1.4C85.7,29.2,85.9,29.2,86.1,29.4z M85.7,31.2c0.1-0.1,0.1-0.2,0.2-0.3
		c0-0.1,0.1-0.2,0.1-0.3s0-0.2-0.1-0.3c0-0.1-0.1-0.2-0.2-0.3c-0.1-0.1-0.2-0.1-0.2-0.1h-1.1v1.4h1.1C85.5,31.3,85.6,31.3,85.7,31.2
		z"/>
	<path class="st3" d="M89.8,33.5c-0.2-0.1-0.5-0.2-0.7-0.4C89,33,89,32.9,89,32.8c0-0.1,0-0.2,0.1-0.3c0.1-0.1,0.2-0.1,0.3-0.1
		c0.1,0,0.2,0,0.2,0.1c0.2,0.1,0.3,0.2,0.5,0.3c0.2,0.1,0.3,0.1,0.6,0.1c0.2,0,0.4-0.1,0.6-0.2s0.3-0.2,0.3-0.4
		c0-0.2-0.1-0.3-0.3-0.4c-0.2-0.1-0.4-0.2-0.8-0.2c-0.9-0.1-1.4-0.6-1.4-1.3c0-0.3,0.1-0.5,0.2-0.7c0.1-0.2,0.3-0.3,0.6-0.4
		s0.5-0.2,0.8-0.2c0.3,0,0.5,0,0.7,0.1c0.2,0.1,0.4,0.2,0.6,0.3c0.1,0.1,0.2,0.2,0.2,0.3c0,0.1,0,0.2-0.1,0.3
		c-0.1,0.1-0.2,0.1-0.3,0.1c-0.1,0-0.1,0-0.2-0.1c-0.1-0.1-0.3-0.2-0.5-0.2s-0.4-0.1-0.5-0.1c-0.3,0-0.5,0-0.6,0.1s-0.2,0.2-0.2,0.4
		c0,0.2,0.1,0.3,0.2,0.4c0.1,0.1,0.4,0.2,0.7,0.2c0.4,0.1,0.6,0.1,0.9,0.2c0.2,0.1,0.4,0.2,0.5,0.4s0.2,0.4,0.2,0.7
		c0,0.3-0.1,0.5-0.2,0.7c-0.1,0.2-0.3,0.4-0.6,0.5c-0.2,0.1-0.5,0.2-0.8,0.2C90.3,33.6,90,33.6,89.8,33.5z"/>
	<path class="st3" d="M95.7,33c0.1,0.1,0.1,0.2,0.1,0.3c0,0.1,0,0.2-0.1,0.3c-0.1,0.1-0.2,0.1-0.3,0.1h-2.1c-0.1,0-0.2,0-0.3-0.1
		s-0.1-0.2-0.1-0.3v-3.6c0-0.1,0-0.2,0.1-0.3c0.1-0.1,0.2-0.1,0.3-0.1h2.1c0.1,0,0.2,0,0.3,0.1c0.1,0.1,0.1,0.2,0.1,0.3
		c0,0.1,0,0.2-0.1,0.3s-0.2,0.1-0.3,0.1h-1.7V31h1.4c0.1,0,0.2,0,0.3,0.1c0.1,0.1,0.1,0.2,0.1,0.3c0,0.1,0,0.2-0.1,0.3
		c-0.1,0.1-0.2,0.1-0.3,0.1h-1.4v1.2h1.7C95.5,32.9,95.6,32.9,95.7,33z"/>
	<path class="st3" d="M100,33.2c0,0.1,0,0.2-0.1,0.3s-0.2,0.1-0.2,0.1c-0.1,0-0.1,0-0.2-0.1c-0.1,0-0.1-0.1-0.1-0.2L99,32.6h-1.9
		l-0.3,0.8c0,0.1-0.1,0.1-0.1,0.2c-0.1,0-0.1,0.1-0.2,0.1c-0.1,0-0.2,0-0.2-0.1c-0.1-0.1-0.1-0.1-0.1-0.2c0,0,0-0.1,0-0.1l1.6-3.8
		c0-0.1,0.1-0.1,0.2-0.2c0.1,0,0.1-0.1,0.2-0.1c0.1,0,0.1,0,0.2,0.1c0.1,0,0.1,0.1,0.1,0.2l1.5,3.7C100,33.1,100,33.2,100,33.2z
		 M97.4,31.9h1.3l-0.6-1.5L97.4,31.9z"/>
	<path class="st3" d="M105.1,33c0.1,0.1,0.1,0.2,0.1,0.3c0,0.1,0,0.2-0.1,0.3c-0.1,0.1-0.2,0.1-0.3,0.1h-2.1c-0.1,0-0.2,0-0.3-0.1
		s-0.1-0.2-0.1-0.3v-3.6c0-0.1,0-0.2,0.1-0.3c0.1-0.1,0.2-0.1,0.3-0.1h2.1c0.1,0,0.2,0,0.3,0.1c0.1,0.1,0.1,0.2,0.1,0.3
		c0,0.1,0,0.2-0.1,0.3s-0.2,0.1-0.3,0.1h-1.7V31h1.4c0.1,0,0.2,0,0.3,0.1c0.1,0.1,0.1,0.2,0.1,0.3c0,0.1,0,0.2-0.1,0.3
		c-0.1,0.1-0.2,0.1-0.3,0.1h-1.4v1.2h1.7C104.9,32.9,105,32.9,105.1,33z"/>
	<path class="st3" d="M108.6,32.9c0.1,0.1,0.1,0.2,0.1,0.3c0,0.1,0,0.2-0.1,0.3s-0.2,0.1-0.3,0.1h-2c-0.1,0-0.2,0-0.3-0.1
		s-0.1-0.2-0.1-0.3v-3.6c0-0.1,0-0.2,0.1-0.3c0.1-0.1,0.2-0.1,0.3-0.1c0.1,0,0.2,0,0.3,0.1c0.1,0.1,0.1,0.2,0.1,0.3v3.3h1.6
		C108.5,32.8,108.6,32.9,108.6,32.9z"/>
	<path class="st3" d="M112.2,33c0.1,0.1,0.1,0.2,0.1,0.3c0,0.1,0,0.2-0.1,0.3c-0.1,0.1-0.2,0.1-0.3,0.1h-2.1c-0.1,0-0.2,0-0.3-0.1
		s-0.1-0.2-0.1-0.3v-3.6c0-0.1,0-0.2,0.1-0.3c0.1-0.1,0.2-0.1,0.3-0.1h2.1c0.1,0,0.2,0,0.3,0.1c0.1,0.1,0.1,0.2,0.1,0.3
		c0,0.1,0,0.2-0.1,0.3s-0.2,0.1-0.3,0.1h-1.7V31h1.4c0.1,0,0.2,0,0.3,0.1c0.1,0.1,0.1,0.2,0.1,0.3c0,0.1,0,0.2-0.1,0.3
		c-0.1,0.1-0.2,0.1-0.3,0.1h-1.4v1.2h1.7C112.1,32.9,112.2,32.9,112.2,33z"/>
	<path class="st3" d="M116.3,29.7c0,0.1,0,0.2-0.1,0.3c-0.1,0.1-0.2,0.1-0.3,0.1c-0.1,0-0.1,0-0.2-0.1c-0.2-0.1-0.4-0.1-0.7-0.1
		c-0.3,0-0.5,0.1-0.8,0.2c-0.2,0.1-0.4,0.3-0.5,0.5c-0.1,0.2-0.2,0.5-0.2,0.8c0,0.5,0.1,0.9,0.4,1.1s0.6,0.4,1,0.4
		c0.3,0,0.5,0,0.7-0.1c0.1,0,0.1-0.1,0.2-0.1c0.1,0,0.2,0,0.3,0.1c0.1,0.1,0.1,0.2,0.1,0.3c0,0.1,0,0.1-0.1,0.2s-0.1,0.1-0.1,0.1
		c-0.3,0.2-0.7,0.2-1,0.2c-0.4,0-0.8-0.1-1.1-0.3c-0.3-0.2-0.6-0.4-0.8-0.8c-0.2-0.3-0.3-0.8-0.3-1.2c0-0.4,0.1-0.8,0.3-1.2
		c0.2-0.3,0.5-0.6,0.8-0.8c0.3-0.2,0.7-0.3,1.2-0.3c0.4,0,0.7,0.1,1,0.2C116.3,29.5,116.3,29.6,116.3,29.7z"/>
	<path class="st3" d="M120.2,29.3c0.1,0.1,0.1,0.2,0.1,0.3c0,0.1,0,0.2-0.1,0.3c-0.1,0.1-0.2,0.1-0.3,0.1h-1v3.3
		c0,0.1,0,0.2-0.1,0.3c-0.1,0.1-0.2,0.1-0.3,0.1c-0.1,0-0.2,0-0.3-0.1c-0.1-0.1-0.1-0.2-0.1-0.3v-3.3h-1c-0.1,0-0.2,0-0.3-0.1
		c-0.1-0.1-0.1-0.2-0.1-0.3c0-0.1,0-0.2,0.1-0.3c0.1-0.1,0.2-0.1,0.3-0.1h2.8C120,29.2,120.1,29.2,120.2,29.3z"/>
	<path class="st3" d="M124.5,33.1c0,0.1,0,0.1,0,0.2c0,0.1,0,0.1-0.1,0.2c-0.1,0.1-0.2,0.1-0.3,0.1c-0.1,0-0.2,0-0.3-0.1
		c-0.3-0.2-0.5-0.5-0.5-1.1c0-0.2,0-0.3-0.1-0.4c-0.1-0.1-0.2-0.1-0.4-0.1h-1.2v1.2c0,0.1,0,0.2-0.1,0.3c-0.1,0.1-0.1,0.1-0.2,0.1
		c-0.1,0-0.2,0-0.3-0.1s-0.1-0.2-0.1-0.3v-3.6c0-0.1,0-0.2,0.1-0.3c0.1-0.1,0.2-0.1,0.3-0.1h1.8c0.2,0,0.4,0.1,0.6,0.2
		s0.3,0.3,0.5,0.5c0.1,0.2,0.2,0.4,0.2,0.7c0,0.2-0.1,0.4-0.2,0.6s-0.3,0.4-0.4,0.5c0.3,0.2,0.4,0.4,0.4,0.7c0,0.1,0,0.1,0,0.2
		c0,0.1,0,0.2,0.1,0.3c0,0.1,0.1,0.1,0.1,0.1C124.5,33,124.5,33,124.5,33.1z M123.3,31.2c0.1-0.1,0.1-0.2,0.2-0.3
		c0-0.1,0.1-0.2,0.1-0.4c0-0.1,0-0.2-0.1-0.3s-0.1-0.2-0.2-0.2s-0.1-0.1-0.2-0.1h-1.4v1.4h1.4C123.2,31.3,123.3,31.3,123.3,31.2z"/>
	<path class="st3" d="M129,32.5c-0.2,0.3-0.4,0.6-0.8,0.8s-0.7,0.3-1.1,0.3s-0.8-0.1-1.1-0.3s-0.6-0.5-0.8-0.8
		c-0.2-0.3-0.3-0.7-0.3-1.1c0-0.4,0.1-0.8,0.3-1.1c0.2-0.3,0.4-0.6,0.8-0.8c0.3-0.2,0.7-0.3,1.1-0.3s0.8,0.1,1.1,0.3
		c0.3,0.2,0.6,0.5,0.8,0.8c0.2,0.3,0.3,0.7,0.3,1.1C129.3,31.8,129.2,32.2,129,32.5z M128.3,30.6c-0.1-0.2-0.3-0.4-0.5-0.5
		c-0.2-0.1-0.4-0.2-0.7-0.2c-0.3,0-0.5,0.1-0.7,0.2c-0.2,0.1-0.4,0.3-0.5,0.5c-0.1,0.2-0.2,0.5-0.2,0.8s0.1,0.5,0.2,0.8
		c0.1,0.2,0.3,0.4,0.5,0.5c0.2,0.1,0.4,0.2,0.7,0.2c0.3,0,0.5-0.1,0.7-0.2c0.2-0.1,0.4-0.3,0.5-0.5s0.2-0.5,0.2-0.8
		S128.4,30.8,128.3,30.6z"/>
	<path class="st3" d="M133.6,29.3c0.1,0.1,0.1,0.2,0.1,0.3v3.7c0,0.1,0,0.2-0.1,0.3s-0.2,0.1-0.3,0.1c-0.1,0-0.1,0-0.2,0
		s-0.1,0-0.1-0.1l-2.3-2.9v2.7c0,0.1,0,0.2-0.1,0.3c-0.1,0.1-0.2,0.1-0.3,0.1c-0.1,0-0.2,0-0.2-0.1c-0.1-0.1-0.1-0.2-0.1-0.3v-3.7
		c0-0.1,0-0.2,0.1-0.3c0.1-0.1,0.2-0.1,0.3-0.1c0.1,0,0.1,0,0.2,0s0.1,0.1,0.1,0.1l2.3,2.9v-2.7c0-0.1,0-0.2,0.1-0.3
		c0.1-0.1,0.1-0.1,0.2-0.1C133.4,29.2,133.5,29.2,133.6,29.3z"/>
	<path class="st3" d="M135.3,33.5c-0.1,0.1-0.2,0.1-0.3,0.1c-0.1,0-0.2,0-0.3-0.1s-0.1-0.2-0.1-0.3v-3.6c0-0.1,0-0.2,0.1-0.3
		c0.1-0.1,0.2-0.1,0.3-0.1c0.1,0,0.2,0,0.3,0.1c0.1,0.1,0.1,0.2,0.1,0.3v3.6C135.4,33.3,135.4,33.4,135.3,33.5z"/>
	<path class="st3" d="M139.6,29.7c0,0.1,0,0.2-0.1,0.3c-0.1,0.1-0.2,0.1-0.3,0.1c-0.1,0-0.1,0-0.2-0.1c-0.2-0.1-0.4-0.1-0.7-0.1
		c-0.3,0-0.5,0.1-0.8,0.2c-0.2,0.1-0.4,0.3-0.5,0.5c-0.1,0.2-0.2,0.5-0.2,0.8c0,0.5,0.1,0.9,0.4,1.1s0.6,0.4,1,0.4
		c0.3,0,0.5,0,0.7-0.1c0.1,0,0.1-0.1,0.2-0.1c0.1,0,0.2,0,0.3,0.1c0.1,0.1,0.1,0.2,0.1,0.3c0,0.1,0,0.1-0.1,0.2s-0.1,0.1-0.1,0.1
		c-0.3,0.2-0.7,0.2-1,0.2c-0.4,0-0.8-0.1-1.1-0.3c-0.3-0.2-0.6-0.4-0.8-0.8c-0.2-0.3-0.3-0.8-0.3-1.2c0-0.4,0.1-0.8,0.3-1.2
		c0.2-0.3,0.5-0.6,0.8-0.8c0.3-0.2,0.7-0.3,1.2-0.3c0.4,0,0.7,0.1,1,0.2C139.6,29.5,139.6,29.6,139.6,29.7z"/>
	<path class="st3" d="M140.9,33.5c-0.2-0.1-0.5-0.2-0.7-0.4c-0.1-0.1-0.2-0.2-0.2-0.3c0-0.1,0-0.2,0.1-0.3c0.1-0.1,0.2-0.1,0.3-0.1
		c0.1,0,0.2,0,0.2,0.1c0.2,0.1,0.3,0.2,0.5,0.3c0.2,0.1,0.3,0.1,0.6,0.1c0.2,0,0.4-0.1,0.6-0.2s0.3-0.2,0.3-0.4
		c0-0.2-0.1-0.3-0.3-0.4c-0.2-0.1-0.4-0.2-0.8-0.2c-0.9-0.1-1.4-0.6-1.4-1.3c0-0.3,0.1-0.5,0.2-0.7c0.1-0.2,0.3-0.3,0.6-0.4
		s0.5-0.2,0.8-0.2c0.3,0,0.5,0,0.7,0.1c0.2,0.1,0.4,0.2,0.6,0.3c0.1,0.1,0.2,0.2,0.2,0.3c0,0.1,0,0.2-0.1,0.3
		c-0.1,0.1-0.2,0.1-0.3,0.1c-0.1,0-0.1,0-0.2-0.1c-0.1-0.1-0.3-0.2-0.5-0.2s-0.4-0.1-0.5-0.1c-0.3,0-0.5,0-0.6,0.1s-0.2,0.2-0.2,0.4
		c0,0.2,0.1,0.3,0.2,0.4c0.1,0.1,0.4,0.2,0.7,0.2c0.4,0.1,0.6,0.1,0.9,0.2c0.2,0.1,0.4,0.2,0.5,0.4s0.2,0.4,0.2,0.7
		c0,0.3-0.1,0.5-0.2,0.7c-0.1,0.2-0.3,0.4-0.6,0.5c-0.2,0.1-0.5,0.2-0.8,0.2C141.4,33.6,141.1,33.6,140.9,33.5z"/>
</g>
<g>
	<path class="st3" d="M221.2,31.7c0.1,0.2,0.2,0.4,0.2,0.5c0,0.2-0.1,0.5-0.2,0.7c-0.1,0.2-0.3,0.4-0.5,0.5
		c-0.2,0.1-0.5,0.2-0.7,0.2s-0.5-0.1-0.7-0.2c-0.2-0.1-0.4-0.3-0.5-0.5c-0.1-0.2-0.2-0.4-0.2-0.7c0-0.4,0.2-0.7,0.6-1
		c-0.1-0.1-0.3-0.2-0.4-0.3c-0.1-0.1-0.1-0.3-0.1-0.5c0-0.2,0.1-0.4,0.2-0.6c0.1-0.2,0.3-0.3,0.5-0.5c0.2-0.1,0.4-0.2,0.7-0.2
		s0.5,0.1,0.7,0.2c0.2,0.1,0.4,0.3,0.5,0.5c0.1,0.2,0.2,0.4,0.2,0.6c0,0.2,0,0.4-0.1,0.5s-0.2,0.2-0.4,0.3
		C220.9,31.4,221.1,31.5,221.2,31.7z M220.4,32.7c0.1-0.1,0.2-0.3,0.2-0.5c0-0.2-0.1-0.3-0.2-0.5c-0.1-0.1-0.3-0.2-0.5-0.2
		c-0.2,0-0.4,0.1-0.5,0.2c-0.1,0.1-0.2,0.3-0.2,0.5c0,0.2,0.1,0.3,0.2,0.5s0.3,0.2,0.5,0.2C220.1,32.9,220.2,32.8,220.4,32.7z
		 M219.4,30c-0.1,0.1-0.2,0.3-0.2,0.4c0,0.2,0.1,0.3,0.2,0.4s0.3,0.2,0.4,0.2c0.2,0,0.3-0.1,0.4-0.2s0.2-0.3,0.2-0.4
		s-0.1-0.3-0.2-0.4c-0.1-0.1-0.3-0.2-0.4-0.2C219.7,29.9,219.5,29.9,219.4,30z"/>
	<path class="st3" d="M224.2,30.9c0.2,0.1,0.4,0.3,0.5,0.5c0.1,0.2,0.2,0.5,0.2,0.7c0,0.3-0.1,0.5-0.2,0.7c-0.1,0.2-0.3,0.4-0.5,0.5
		c-0.2,0.1-0.5,0.2-0.7,0.2c-0.3,0-0.5-0.1-0.8-0.2c-0.2-0.2-0.4-0.4-0.5-0.6c-0.1-0.3-0.2-0.5-0.2-0.8c0-0.3,0.1-0.6,0.2-1
		c0.1-0.4,0.3-0.7,0.6-1s0.7-0.6,1.2-0.7c0,0,0.1,0,0.1,0c0.1,0,0.2,0,0.3,0.1s0.1,0.1,0.1,0.3c0,0.1,0,0.2-0.1,0.2
		c-0.1,0.1-0.1,0.1-0.2,0.1c-0.3,0.1-0.5,0.2-0.7,0.4c-0.2,0.2-0.4,0.4-0.5,0.7c0.2-0.2,0.4-0.3,0.7-0.3
		C223.8,30.7,224,30.8,224.2,30.9z M223.9,32.7c0.1-0.1,0.2-0.3,0.2-0.5c0-0.2-0.1-0.4-0.2-0.5c-0.1-0.1-0.3-0.2-0.5-0.2
		c-0.2,0-0.4,0.1-0.5,0.2c-0.1,0.1-0.2,0.3-0.2,0.5c0,0.2,0.1,0.4,0.2,0.5c0.1,0.1,0.3,0.2,0.5,0.2
		C223.6,32.9,223.8,32.9,223.9,32.7z"/>
	<path class="st3" d="M226.9,29.3c0.1,0.1,0.1,0.2,0.1,0.3v3.6c0,0.1,0,0.2-0.1,0.3c-0.1,0.1-0.2,0.1-0.3,0.1c-0.1,0-0.2,0-0.3-0.1
		s-0.1-0.2-0.1-0.3v-3l-0.4,0.2c-0.1,0-0.1,0.1-0.2,0.1c-0.1,0-0.2,0-0.3-0.1c-0.1-0.1-0.1-0.2-0.1-0.3c0-0.1,0-0.1,0.1-0.2
		c0-0.1,0.1-0.1,0.1-0.1l1-0.6c0.1,0,0.2-0.1,0.3-0.1C226.7,29.2,226.8,29.2,226.9,29.3z"/>
	<path class="st3" d="M228.5,33.4c-0.3-0.2-0.4-0.5-0.6-0.8c-0.1-0.3-0.2-0.7-0.2-1.2s0.1-0.8,0.2-1.2c0.1-0.3,0.3-0.6,0.6-0.8
		c0.3-0.2,0.6-0.3,0.9-0.3s0.7,0.1,0.9,0.3s0.4,0.5,0.6,0.8c0.1,0.3,0.2,0.7,0.2,1.2s-0.1,0.8-0.2,1.2c-0.1,0.3-0.3,0.6-0.6,0.8
		c-0.3,0.2-0.6,0.3-0.9,0.3S228.7,33.5,228.5,33.4z M230,32.5c0.2-0.3,0.2-0.6,0.2-1.1s-0.1-0.9-0.2-1.1s-0.4-0.4-0.6-0.4
		s-0.5,0.1-0.6,0.4s-0.2,0.6-0.2,1.1s0.1,0.9,0.2,1.1s0.4,0.4,0.6,0.4S229.9,32.8,230,32.5z"/>
</g>
<line class="st4" x1="248.7" y1="96.7" x2="9.4" y2="96.7"/>
<circle class="st0" cx="42.2" cy="121.5" r="8.7"/>
<path class="st2" d="M47.1,122.8v-2.1h-0.3v-1.7h-0.7v2l-1.7,0.5v-0.7h-0.3v-3.4h-0.8v3.5l-0.5,0.3v-3.1H42v3.2l-0.4,0.2v-0.9
	l-2.9,0.9v0.5h-0.4v-3.3h-0.8v3.3h-1.7v1.6h12.8v-0.7H47.1z M40.8,122.5h-1.5V122h1.5V122.5z M43.6,122.5H42V122h1.5V122.5z
	 M46.5,122.5H45V122h1.5V122.5z"/>
<polygon class="st2" points="219.7,142.4 106.1,142.4 106.1,141.4 218.7,141.4 218.7,138.2 219.7,138.2 "/>
<circle class="st2" cx="106.1" cy="141.9" r="1"/>
<circle class="st2" cx="97.7" cy="141.9" r="1"/>
<polygon class="st2" points="97.7,142.4 41.7,142.4 41.7,130.1 42.7,130.1 42.7,141.4 97.7,141.4 "/>
<g id="btn_x5F_gen">
	<circle class="st5" cx="219.2" cy="121.5" r="8.7"/>
	<path class="st6" d="M214.9,122.5c0,0,0.1-2.3,2.3-2.3c2.1,0,1.7,2.5,4.1,2.5s2.2-2.3,2.2-2.3"/>
</g>
<g id="btn_x5F_start">
	<circle class="st7" cx="219.2" cy="159.4" r="8.7"/>
	<rect x="218.1" y="153.6" class="st8" width="2.4" height="11.5"/>
</g>
<g id="btn_x5F_silence">
	<circle class="st8" cx="184" cy="160.6" r="8.7"/>
	<polygon class="st1" points="182.3,160 182.3,159.8 182.3,158.3 179.7,158.3 179.7,162.3 182.3,162.3 182.3,161 188.2,162.6 
		188.2,158.1 	"/>
	<path class="st9" d="M184,168c-4.1,0-7.4-3.3-7.4-7.4c0-4.1,3.3-7.4,7.4-7.4s7.4,3.3,7.4,7.4C191.4,164.6,188,168,184,168z
		 M184,153.7c-3.8,0-6.9,3.1-6.9,6.9s3.1,6.9,6.9,6.9s6.9-3.1,6.9-6.9S187.8,153.7,184,153.7z"/>
	
		<rect x="183.6" y="153.6" transform="matrix(0.7192 -0.6948 0.6948 0.7192 -60.0111 172.8895)" class="st9" width="0.5" height="14.2"/>
</g>
<g id="btn_x5F_auto">
	<circle class="st8" cx="148.5" cy="161.4" r="8.7"/>
	<g>
		<path class="st1" d="M155.7,162h-0.5v-2.5c0-0.5-0.4-0.9-0.9-0.9h-0.6l-0.9-0.5v0.5h-10c-0.5,0-0.9,0.4-0.9,0.9v0.2l-0.5,0.9h0.5
			v2.6c0,0.5,0.4,0.9,0.9,0.9h0.3l0.9,0.5v-0.5h10.3c0.5,0,0.9-0.4,0.9-0.9v-0.3L155.7,162z M154.3,163.8H144v-0.5l-0.9,0.5h-0.3
			c-0.3,0-0.6-0.3-0.6-0.6v-2.6h0.5l-0.5-0.9v-0.2c0-0.3,0.3-0.6,0.6-0.6h10v0.5l0.9-0.5h0.6c0.3,0,0.6,0.3,0.6,0.6v2.5h-0.5
			l0.5,0.9v0.3C154.9,163.5,154.6,163.8,154.3,163.8z"/>
		<g>
			<path class="st1" d="M146,162.3c0,0.1,0,0.1-0.1,0.2c0,0-0.1,0.1-0.1,0.1c0,0-0.1,0-0.1,0c0,0-0.1-0.1-0.1-0.1l-0.2-0.4h-1.1
				l-0.2,0.4c0,0,0,0.1-0.1,0.1c0,0-0.1,0-0.1,0c-0.1,0-0.1,0-0.1-0.1c0,0,0-0.1,0-0.1c0,0,0,0,0-0.1l0.9-2.2c0,0,0-0.1,0.1-0.1
				c0,0,0.1,0,0.1,0c0,0,0.1,0,0.1,0c0,0,0.1,0.1,0.1,0.1L146,162.3C146,162.2,146,162.3,146,162.3z M144.5,161.5h0.7l-0.4-0.9
				L144.5,161.5z"/>
			<path class="st1" d="M148.3,160c0,0,0.1,0.1,0.1,0.2v1.3c0,0.2,0,0.4-0.1,0.5c-0.1,0.2-0.2,0.3-0.4,0.4c-0.2,0.1-0.3,0.1-0.5,0.1
				c-0.2,0-0.4,0-0.5-0.1c-0.2-0.1-0.3-0.2-0.4-0.4c-0.1-0.2-0.1-0.3-0.1-0.5v-1.3c0-0.1,0-0.1,0.1-0.2c0,0,0.1-0.1,0.2-0.1
				c0.1,0,0.1,0,0.2,0.1c0,0,0.1,0.1,0.1,0.2v1.3c0,0.1,0,0.2,0.1,0.3c0.1,0.1,0.1,0.2,0.2,0.2c0.1,0,0.2,0.1,0.3,0.1
				c0.1,0,0.2,0,0.3-0.1c0.1,0,0.2-0.1,0.2-0.2c0.1-0.1,0.1-0.2,0.1-0.3v-1.3c0-0.1,0-0.1,0.1-0.2c0,0,0.1-0.1,0.2-0.1
				C148.2,159.9,148.2,159.9,148.3,160z"/>
			<path class="st1" d="M150.7,160c0,0,0.1,0.1,0.1,0.2c0,0.1,0,0.1-0.1,0.2c0,0-0.1,0.1-0.2,0.1H150v1.9c0,0.1,0,0.1-0.1,0.2
				c0,0-0.1,0.1-0.2,0.1c-0.1,0-0.1,0-0.2-0.1c0,0-0.1-0.1-0.1-0.2v-1.9h-0.6c-0.1,0-0.1,0-0.2-0.1c0,0-0.1-0.1-0.1-0.2
				c0-0.1,0-0.1,0.1-0.2c0,0,0.1-0.1,0.2-0.1h1.6C150.6,159.9,150.7,159.9,150.7,160z"/>
			<path class="st1" d="M153.3,161.9c-0.1,0.2-0.3,0.4-0.4,0.5c-0.2,0.1-0.4,0.2-0.6,0.2c-0.2,0-0.5-0.1-0.6-0.2
				c-0.2-0.1-0.3-0.3-0.4-0.5c-0.1-0.2-0.2-0.4-0.2-0.7c0-0.2,0.1-0.5,0.2-0.7c0.1-0.2,0.3-0.4,0.4-0.5c0.2-0.1,0.4-0.2,0.6-0.2
				c0.2,0,0.5,0.1,0.6,0.2c0.2,0.1,0.3,0.3,0.4,0.5c0.1,0.2,0.2,0.4,0.2,0.7C153.5,161.4,153.4,161.7,153.3,161.9z M152.9,160.8
				c-0.1-0.1-0.2-0.2-0.3-0.3c-0.1-0.1-0.2-0.1-0.4-0.1c-0.1,0-0.3,0-0.4,0.1c-0.1,0.1-0.2,0.2-0.3,0.3c-0.1,0.1-0.1,0.3-0.1,0.4
				c0,0.2,0,0.3,0.1,0.4c0.1,0.1,0.2,0.2,0.3,0.3c0.1,0.1,0.2,0.1,0.4,0.1c0.1,0,0.3,0,0.4-0.1c0.1-0.1,0.2-0.2,0.3-0.3
				c0.1-0.1,0.1-0.3,0.1-0.4C153,161,152.9,160.9,152.9,160.8z"/>
		</g>
	</g>
</g>
<g id="btn_x5F_manual">
	<circle class="st8" cx="77.7" cy="160.6" r="8.7"/>
	<path class="st0" d="M79.9,166.3h-5.1c-0.1,0-0.1,0-0.2-0.1s-0.1-0.1-0.1-0.2c0-0.2,0-0.9-0.3-1.2c-0.4-0.5-0.5-1.4-0.5-1.4l0-6.1
		c0-0.4,0.2-0.6,0.3-0.7c0.4-0.3,0.9-0.2,1.2-0.2c0.1-0.2,0.2-0.4,0.3-0.5c0.3-0.3,0.8-0.2,1.1-0.2c0.1-0.4,0.4-0.8,1-0.8
		c0.6,0,0.9,0.5,1,0.8c0.3-0.1,0.6-0.1,0.8,0.1c0.5,0.2,0.6,0.7,0.6,0.7c0,0,0,0,0,0.1v2c0.2-0.1,0.5-0.1,0.7,0
		c0.4,0.1,0.8,0.5,0.8,0.8v1.9c0,0.8-0.2,1.3-0.3,1.5l-0.1,0.2c-0.2,0.3-0.4,0.9-0.6,1.2c-0.2,0.4-0.4,0.8-0.4,1v0.9
		C80.2,166.2,80.1,166.3,79.9,166.3z M75.1,165.8h4.6v-0.6c0-0.4,0.3-1,0.5-1.3c0.2-0.3,0.5-0.8,0.6-1.1l0.1-0.2
		c0.1-0.2,0.3-0.6,0.3-1.3v-1.9c0-0.1-0.2-0.3-0.5-0.3c-0.2,0-0.4,0-0.5,0.2c-0.1,0.1-0.2,0.1-0.3,0.1c-0.1,0-0.2-0.1-0.2-0.2v-2.5
		c0-0.1-0.1-0.3-0.3-0.4c-0.2-0.1-0.4-0.1-0.7,0.1c-0.1,0-0.2,0-0.2,0c-0.1,0-0.1-0.1-0.1-0.2c0,0-0.1-0.7-0.6-0.7
		c-0.5,0-0.5,0.6-0.5,0.6c0,0.1,0,0.1-0.1,0.2c-0.1,0-0.1,0.1-0.2,0c-0.2,0-0.7-0.1-0.9,0.1c-0.1,0.1-0.2,0.2-0.2,0.4
		c0,0.1,0,0.2-0.1,0.2c-0.1,0-0.1,0.1-0.2,0c-0.2-0.1-0.8-0.2-1.1,0c-0.1,0-0.1,0.1-0.1,0.3v6.1c0,0.2,0.1,0.8,0.4,1.1
		C75,164.9,75.1,165.5,75.1,165.8z"/>
	<path class="st0" d="M79.9,161.8c-0.1,0-0.3-0.1-0.3-0.3v-2.4c0-0.1,0.1-0.3,0.3-0.3s0.3,0.1,0.3,0.3v2.4
		C80.2,161.7,80.1,161.8,79.9,161.8z"/>
	<path class="st0" d="M78.6,160.4c-0.1,0-0.3-0.1-0.3-0.3v-4.1c0-0.1,0.1-0.3,0.3-0.3s0.3,0.1,0.3,0.3v4.1
		C78.9,160.3,78.7,160.4,78.6,160.4z"/>
	<path class="st0" d="M77,160.4c-0.1,0-0.3-0.1-0.3-0.3V156c0-0.1,0.1-0.3,0.3-0.3s0.3,0.1,0.3,0.3v4.1
		C77.2,160.3,77.1,160.4,77,160.4z"/>
	<path class="st0" d="M75.6,160.7c-0.1,0-0.3-0.1-0.3-0.3v-3.8c0-0.1,0.1-0.3,0.3-0.3s0.3,0.1,0.3,0.3v3.8
		C75.8,160.6,75.7,160.7,75.6,160.7z"/>
</g>
<g id="btn_x5F_stop">
	<circle class="st9" cx="42.5" cy="159.4" r="8.7"/>
	<g>
		<path class="st3" d="M46.4,161.7c-0.4,0.7-0.9,1.3-1.6,1.7c-0.7,0.4-1.5,0.6-2.3,0.6s-1.6-0.2-2.3-0.6c-0.7-0.4-1.2-1-1.6-1.7
			c-0.4-0.7-0.6-1.5-0.6-2.4c0-0.9,0.2-1.7,0.6-2.4c0.4-0.7,0.9-1.3,1.6-1.7c0.7-0.4,1.5-0.6,2.3-0.6s1.6,0.2,2.3,0.6
			c0.7,0.4,1.2,1,1.6,1.7c0.4,0.7,0.6,1.5,0.6,2.4C47,160.2,46.8,161,46.4,161.7z M44.9,157.8c-0.2-0.5-0.6-0.9-1-1.1
			s-0.9-0.4-1.4-0.4c-0.5,0-1,0.1-1.4,0.4c-0.4,0.3-0.7,0.7-1,1.1c-0.2,0.5-0.4,1-0.4,1.6c0,0.6,0.1,1.1,0.4,1.6
			c0.2,0.5,0.6,0.9,1,1.1c0.4,0.3,0.9,0.4,1.4,0.4c0.5,0,1-0.1,1.4-0.4c0.4-0.3,0.8-0.7,1-1.1c0.2-0.5,0.4-1,0.4-1.6
			C45.3,158.8,45.2,158.2,44.9,157.8z"/>
	</g>
</g>
<g id="led_x5F_gen">
	<circle class="st10" cx="219.2" cy="135.6" r="2.6"/>
</g>
<g id="led_x5F_qgen">
	<circle class="st11" cx="101.9" cy="141.9" r="2.6"/>
</g>
<g id="bg_x5F_status">
	<path class="st7" d="M223.3,83.8H79.5c-4.4,0-8-3.6-8-8V46.1c0-4.4,3.6-8,8-8h143.8c4.4,0,8,3.6,8,8v29.6
		C231.3,80.2,227.7,83.8,223.3,83.8z"/>
</g>
<g id="text_x5F_status">
	<text transform="matrix(1 0 0 1 132.5829 68.7808)" class="st3 st12 st13">OK</text>
</g>
</svg>
