<?xml version="1.0" encoding="utf-8"?>
<!-- Generator: Adobe Illustrator 23.0.0, SVG Export Plug-In . SVG Version: 6.00 Build 0)  -->
<svg version="1.0" id="Layer_1" xmlns="http://www.w3.org/2000/svg" xmlns:xlink="http://www.w3.org/1999/xlink" x="0px" y="0px"
	 viewBox="0 0 258.4 193.3" style="enable-background:new 0 0 258.4 193.3;" xml:space="preserve">
<g id="ats_x5F_details">
	<g>
		<path style="fill:#231F20;" d="M241.6,3.9c0,0,16.8,0.9,16.8,18s0,149.9,0,149.9s-0.4,16.4-16.8,17.6c-16.4,1.2-70.4,3.9-108,3.9
			s-107.1-2.7-116.8-4S0,181.6,0,171.6S0,21.8,0,21.8S0.2,5.5,16.7,3.9S104.8,0,129.2,0S241.6,3.9,241.6,3.9z"/>
		<path style="fill:#424143;" d="M129.2,9.3c0,0,97.1,1.7,111.6,4c0,0,7.8,1.6,7.8,8.5s0,146.1,0,149.7s-2.4,7.6-7.6,8.3
			s-72.3,4-107.8,4s-104.2-2.5-116-4c0,0-8-1.6-7.9-8.2s0-147.3,0-149.8s2-8,8-8.6C23.4,12.8,103.8,9.3,129.2,9.3z"/>
	</g>
	<g>
		<circle style="fill:#231F20;" cx="42.2" cy="62.6" r="6.2"/>
		<circle style="fill:#231F20;" cx="42.2" cy="46.8" r="6.2"/>
		<polygon style="fill:#F2F2F2;" points="42.2,43.3 39.1,48.7 45.3,48.7 		"/>
		<circle style="fill:#231F20;" cx="42.2" cy="78.5" r="6.2"/>
		<polygon style="fill:#F2F2F2;" points="42.2,82 45.3,76.6 39.1,76.6 		"/>
		<circle style="fill:#231F20;" cx="58" cy="62.6" r="6.2"/>
		<polygon style="fill:#F2F2F2;" points="61.6,62.6 56.2,59.5 56.2,65.7 		"/>
		<circle style="fill:#231F20;" cx="26.4" cy="62.6" r="6.2"/>
		<polygon style="fill:#F2F2F2;" points="22.9,62.6 28.3,65.7 28.3,59.5 		"/>
		<path style="fill:#FFFFFF;" d="M39.4,63.6l1-1l1,1c0,0,2.2-3.4,3.6-4l0.1,0.2c0,0-3.2,3.3-3.5,5.4L39.4,63.6z"/>
	</g>
	<g>
		<path style="fill:#F2F2F2;" d="M141.9,123.1v-5.5h-0.7v-4.4h-1.8v5l-4.3,1.2v-1.8h-0.8v-8.6h-2.1v9.1l-1.2,0.7v-8h-2.1v8.3
			l-0.9,0.6v-2.3l-7.5,2.3v1.3h-0.9v-8.4h-2.1v8.4h-4.5v4.1h32.9v-1.7H141.9z M125.8,122.3h-3.9v-1.2h3.9V122.3z M132.9,122.3h-3.9
			v-1.2h3.9V122.3z M140.3,122.3h-3.9v-1.2h3.9V122.3z"/>
		<circle style="fill:#F2F2F2;" cx="45.4" cy="133.6" r="1"/>
		<circle style="fill:#F2F2F2;" cx="82.8" cy="133.6" r="1"/>
		<circle style="fill:#F2F2F2;" cx="176" cy="133.6" r="1"/>
		<circle style="fill:#F2F2F2;" cx="184.5" cy="133.6" r="1"/>
		<circle style="fill:#F2F2F2;" cx="214.2" cy="133.6" r="1"/>
		<circle style="fill:#F2F2F2;" cx="74.5" cy="133.6" r="1"/>
		<rect x="45.4" y="133.1" style="fill:#F2F2F2;" width="29.2" height="1"/>
		<rect x="82.8" y="133.1" style="fill:#F2F2F2;" width="93.1" height="1"/>
		<rect x="184.5" y="133.1" style="fill:#F2F2F2;" width="29.7" height="1"/>
		<rect x="128.9" y="124.4" style="fill:#F2F2F2;" width="1" height="9.2"/>
	</g>
	<g>
		<g>
			<path style="fill:#FFFFFF;" d="M74.8,29.5c0.3,0.2,0.5,0.5,0.6,0.8c0.1,0.3,0.2,0.7,0.2,1.1s-0.1,0.8-0.2,1.1s-0.4,0.6-0.6,0.8
				s-0.6,0.3-1,0.3h-1.5c-0.1,0-0.2,0-0.3-0.1c-0.1-0.1-0.1-0.2-0.1-0.3v-3.6c0-0.1,0-0.2,0.1-0.3c0.1-0.1,0.2-0.1,0.3-0.1h1.5
				C74.2,29.2,74.5,29.3,74.8,29.5z M74.6,32.4c0.2-0.3,0.3-0.6,0.3-1.1c0-0.4-0.1-0.8-0.3-1.1c-0.2-0.3-0.5-0.4-0.8-0.4h-1v3h1
				C74.1,32.9,74.4,32.7,74.6,32.4z"/>
			<path style="fill:#FFFFFF;" d="M79.2,33c0.1,0.1,0.1,0.2,0.1,0.3c0,0.1,0,0.2-0.1,0.3c-0.1,0.1-0.2,0.1-0.3,0.1h-2.1
				c-0.1,0-0.2,0-0.3-0.1c-0.1-0.1-0.1-0.2-0.1-0.3v-3.6c0-0.1,0-0.2,0.1-0.3c0.1-0.1,0.2-0.1,0.3-0.1h2.1c0.1,0,0.2,0,0.3,0.1
				c0.1,0.1,0.1,0.2,0.1,0.3c0,0.1,0,0.2-0.1,0.3s-0.2,0.1-0.3,0.1h-1.7V31h1.4c0.1,0,0.2,0,0.3,0.1c0.1,0.1,0.1,0.2,0.1,0.3
				c0,0.1,0,0.2-0.1,0.3c-0.1,0.1-0.2,0.1-0.3,0.1h-1.4v1.2h1.7C79,32.9,79.1,32.9,79.2,33z"/>
			<path style="fill:#FFFFFF;" d="M82.8,33c0.1,0.1,0.1,0.2,0.1,0.3c0,0.1,0,0.2-0.1,0.3c-0.1,0.1-0.2,0.1-0.3,0.1h-2.1
				c-0.1,0-0.2,0-0.3-0.1c-0.1-0.1-0.1-0.2-0.1-0.3v-3.6c0-0.1,0-0.2,0.1-0.3c0.1-0.1,0.2-0.1,0.3-0.1h2.1c0.1,0,0.2,0,0.3,0.1
				c0.1,0.1,0.1,0.2,0.1,0.3c0,0.1,0,0.2-0.1,0.3s-0.2,0.1-0.3,0.1h-1.7V31h1.4c0.1,0,0.2,0,0.3,0.1c0.1,0.1,0.1,0.2,0.1,0.3
				c0,0.1,0,0.2-0.1,0.3c-0.1,0.1-0.2,0.1-0.3,0.1h-1.4v1.2h1.7C82.6,32.9,82.7,32.9,82.8,33z"/>
			<path style="fill:#FFFFFF;" d="M86.1,29.4c0.2,0.1,0.3,0.3,0.5,0.5c0.1,0.2,0.2,0.5,0.2,0.7c0,0.3-0.1,0.5-0.2,0.7
				c-0.1,0.2-0.3,0.4-0.5,0.5c-0.2,0.1-0.4,0.2-0.6,0.2h-1.1v1.2c0,0.1,0,0.2-0.1,0.3c-0.1,0.1-0.2,0.1-0.3,0.1
				c-0.1,0-0.2,0-0.3-0.1c-0.1-0.1-0.1-0.2-0.1-0.3v-3.6c0-0.1,0-0.2,0.1-0.3c0.1-0.1,0.2-0.1,0.3-0.1h1.4
				C85.7,29.2,85.9,29.2,86.1,29.4z M85.7,31.2c0.1-0.1,0.1-0.2,0.2-0.3c0-0.1,0.1-0.2,0.1-0.3s0-0.2-0.1-0.3s-0.1-0.2-0.2-0.3
				c-0.1-0.1-0.2-0.1-0.2-0.1h-1.1v1.4h1.1C85.5,31.3,85.6,31.3,85.7,31.2z"/>
			<path style="fill:#FFFFFF;" d="M89.8,33.5c-0.2-0.1-0.5-0.2-0.7-0.4C89,33,89,32.9,89,32.8c0-0.1,0-0.2,0.1-0.3
				c0.1-0.1,0.2-0.1,0.3-0.1c0.1,0,0.2,0,0.2,0.1c0.2,0.1,0.3,0.2,0.5,0.3c0.2,0.1,0.3,0.1,0.6,0.1c0.2,0,0.4-0.1,0.6-0.2
				s0.3-0.2,0.3-0.4c0-0.2-0.1-0.3-0.3-0.4c-0.2-0.1-0.4-0.2-0.8-0.2c-0.9-0.1-1.4-0.6-1.4-1.3c0-0.3,0.1-0.5,0.2-0.7
				c0.1-0.2,0.3-0.3,0.6-0.4s0.5-0.2,0.8-0.2c0.3,0,0.5,0,0.7,0.1c0.2,0.1,0.4,0.2,0.6,0.3c0.1,0.1,0.2,0.2,0.2,0.3
				c0,0.1,0,0.2-0.1,0.3c-0.1,0.1-0.2,0.1-0.3,0.1c-0.1,0-0.1,0-0.2-0.1c-0.1-0.1-0.3-0.2-0.5-0.2c-0.2-0.1-0.4-0.1-0.5-0.1
				c-0.3,0-0.5,0-0.6,0.1c-0.1,0.1-0.2,0.2-0.2,0.4c0,0.2,0.1,0.3,0.2,0.4c0.1,0.1,0.4,0.2,0.7,0.2c0.4,0.1,0.6,0.1,0.9,0.2
				s0.4,0.2,0.5,0.4c0.1,0.2,0.2,0.4,0.2,0.7c0,0.3-0.1,0.5-0.2,0.7c-0.1,0.2-0.3,0.4-0.6,0.5s-0.5,0.2-0.8,0.2
				C90.3,33.6,90,33.6,89.8,33.5z"/>
			<path style="fill:#FFFFFF;" d="M95.7,33c0.1,0.1,0.1,0.2,0.1,0.3c0,0.1,0,0.2-0.1,0.3c-0.1,0.1-0.2,0.1-0.3,0.1h-2.1
				c-0.1,0-0.2,0-0.3-0.1c-0.1-0.1-0.1-0.2-0.1-0.3v-3.6c0-0.1,0-0.2,0.1-0.3c0.1-0.1,0.2-0.1,0.3-0.1h2.1c0.1,0,0.2,0,0.3,0.1
				c0.1,0.1,0.1,0.2,0.1,0.3c0,0.1,0,0.2-0.1,0.3s-0.2,0.1-0.3,0.1h-1.7V31h1.4c0.1,0,0.2,0,0.3,0.1c0.1,0.1,0.1,0.2,0.1,0.3
				c0,0.1,0,0.2-0.1,0.3c-0.1,0.1-0.2,0.1-0.3,0.1h-1.4v1.2h1.7C95.5,32.9,95.6,32.9,95.7,33z"/>
			<path style="fill:#FFFFFF;" d="M100,33.2c0,0.1,0,0.2-0.1,0.3c-0.1,0.1-0.2,0.1-0.2,0.1c-0.1,0-0.1,0-0.2-0.1
				c-0.1,0-0.1-0.1-0.1-0.2L99,32.6h-1.9l-0.3,0.8c0,0.1-0.1,0.1-0.1,0.2c-0.1,0-0.1,0.1-0.2,0.1c-0.1,0-0.2,0-0.2-0.1
				s-0.1-0.1-0.1-0.2c0,0,0-0.1,0-0.1l1.6-3.8c0-0.1,0.1-0.1,0.2-0.2c0.1,0,0.1-0.1,0.2-0.1c0.1,0,0.1,0,0.2,0.1
				c0.1,0,0.1,0.1,0.1,0.2l1.5,3.7C100,33.1,100,33.2,100,33.2z M97.4,31.9h1.3l-0.6-1.5L97.4,31.9z"/>
			<path style="fill:#FFFFFF;" d="M105.1,33c0.1,0.1,0.1,0.2,0.1,0.3c0,0.1,0,0.2-0.1,0.3c-0.1,0.1-0.2,0.1-0.3,0.1h-2.1
				c-0.1,0-0.2,0-0.3-0.1c-0.1-0.1-0.1-0.2-0.1-0.3v-3.6c0-0.1,0-0.2,0.1-0.3c0.1-0.1,0.2-0.1,0.3-0.1h2.1c0.1,0,0.2,0,0.3,0.1
				c0.1,0.1,0.1,0.2,0.1,0.3c0,0.1,0,0.2-0.1,0.3s-0.2,0.1-0.3,0.1h-1.7V31h1.4c0.1,0,0.2,0,0.3,0.1c0.1,0.1,0.1,0.2,0.1,0.3
				c0,0.1,0,0.2-0.1,0.3c-0.1,0.1-0.2,0.1-0.3,0.1h-1.4v1.2h1.7C104.9,32.9,105,32.9,105.1,33z"/>
			<path style="fill:#FFFFFF;" d="M108.6,32.9c0.1,0.1,0.1,0.2,0.1,0.3c0,0.1,0,0.2-0.1,0.3c-0.1,0.1-0.2,0.1-0.3,0.1h-2
				c-0.1,0-0.2,0-0.3-0.1c-0.1-0.1-0.1-0.2-0.1-0.3v-3.6c0-0.1,0-0.2,0.1-0.3c0.1-0.1,0.2-0.1,0.3-0.1c0.1,0,0.2,0,0.3,0.1
				c0.1,0.1,0.1,0.2,0.1,0.3v3.3h1.6C108.5,32.8,108.6,32.9,108.6,32.9z"/>
			<path style="fill:#FFFFFF;" d="M112.2,33c0.1,0.1,0.1,0.2,0.1,0.3c0,0.1,0,0.2-0.1,0.3c-0.1,0.1-0.2,0.1-0.3,0.1h-2.1
				c-0.1,0-0.2,0-0.3-0.1c-0.1-0.1-0.1-0.2-0.1-0.3v-3.6c0-0.1,0-0.2,0.1-0.3c0.1-0.1,0.2-0.1,0.3-0.1h2.1c0.1,0,0.2,0,0.3,0.1
				c0.1,0.1,0.1,0.2,0.1,0.3c0,0.1,0,0.2-0.1,0.3s-0.2,0.1-0.3,0.1h-1.7V31h1.4c0.1,0,0.2,0,0.3,0.1c0.1,0.1,0.1,0.2,0.1,0.3
				c0,0.1,0,0.2-0.1,0.3c-0.1,0.1-0.2,0.1-0.3,0.1h-1.4v1.2h1.7C112.1,32.9,112.2,32.9,112.2,33z"/>
			<path style="fill:#FFFFFF;" d="M116.3,29.7c0,0.1,0,0.2-0.1,0.3c-0.1,0.1-0.2,0.1-0.3,0.1c-0.1,0-0.1,0-0.2-0.1
				c-0.2-0.1-0.4-0.1-0.7-0.1c-0.3,0-0.5,0.1-0.8,0.2s-0.4,0.3-0.5,0.5c-0.1,0.2-0.2,0.5-0.2,0.8c0,0.5,0.1,0.9,0.4,1.1
				c0.3,0.3,0.6,0.4,1,0.4c0.3,0,0.5,0,0.7-0.1c0.1,0,0.1-0.1,0.2-0.1c0.1,0,0.2,0,0.3,0.1c0.1,0.1,0.1,0.2,0.1,0.3
				c0,0.1,0,0.1-0.1,0.2s-0.1,0.1-0.1,0.1c-0.3,0.2-0.7,0.2-1,0.2c-0.4,0-0.8-0.1-1.1-0.3c-0.3-0.2-0.6-0.4-0.8-0.8
				c-0.2-0.3-0.3-0.8-0.3-1.2c0-0.4,0.1-0.8,0.3-1.2c0.2-0.3,0.5-0.6,0.8-0.8c0.3-0.2,0.7-0.3,1.2-0.3c0.4,0,0.7,0.1,1,0.2
				C116.3,29.5,116.3,29.6,116.3,29.7z"/>
			<path style="fill:#FFFFFF;" d="M120.2,29.3c0.1,0.1,0.1,0.2,0.1,0.3c0,0.1,0,0.2-0.1,0.3s-0.2,0.1-0.3,0.1h-1v3.3
				c0,0.1,0,0.2-0.1,0.3c-0.1,0.1-0.2,0.1-0.3,0.1c-0.1,0-0.2,0-0.3-0.1c-0.1-0.1-0.1-0.2-0.1-0.3v-3.3h-1c-0.1,0-0.2,0-0.3-0.1
				c-0.1-0.1-0.1-0.2-0.1-0.3c0-0.1,0-0.2,0.1-0.3c0.1-0.1,0.2-0.1,0.3-0.1h2.8C120,29.2,120.1,29.2,120.2,29.3z"/>
			<path style="fill:#FFFFFF;" d="M124.5,33.1c0,0.1,0,0.1,0,0.2c0,0.1,0,0.1-0.1,0.2c-0.1,0.1-0.2,0.1-0.3,0.1
				c-0.1,0-0.2,0-0.3-0.1c-0.3-0.2-0.5-0.5-0.5-1.1c0-0.2,0-0.3-0.1-0.4c-0.1-0.1-0.2-0.1-0.4-0.1h-1.2v1.2c0,0.1,0,0.2-0.1,0.3
				c-0.1,0.1-0.1,0.1-0.2,0.1c-0.1,0-0.2,0-0.3-0.1s-0.1-0.2-0.1-0.3v-3.6c0-0.1,0-0.2,0.1-0.3c0.1-0.1,0.2-0.1,0.3-0.1h1.8
				c0.2,0,0.4,0.1,0.6,0.2s0.3,0.3,0.5,0.5c0.1,0.2,0.2,0.4,0.2,0.7c0,0.2-0.1,0.4-0.2,0.6s-0.3,0.4-0.4,0.5
				c0.3,0.2,0.4,0.4,0.4,0.7c0,0.1,0,0.1,0,0.2c0,0.1,0,0.2,0.1,0.3s0.1,0.1,0.1,0.1C124.5,33,124.5,33,124.5,33.1z M123.3,31.2
				c0.1-0.1,0.1-0.2,0.2-0.3c0-0.1,0.1-0.2,0.1-0.4c0-0.1,0-0.2-0.1-0.3c0-0.1-0.1-0.2-0.2-0.2s-0.1-0.1-0.2-0.1h-1.4v1.4h1.4
				C123.2,31.3,123.3,31.3,123.3,31.2z"/>
			<path style="fill:#FFFFFF;" d="M129,32.5c-0.2,0.3-0.4,0.6-0.8,0.8s-0.7,0.3-1.1,0.3c-0.4,0-0.8-0.1-1.1-0.3
				c-0.3-0.2-0.6-0.5-0.8-0.8c-0.2-0.3-0.3-0.7-0.3-1.1c0-0.4,0.1-0.8,0.3-1.1c0.2-0.3,0.4-0.6,0.8-0.8c0.3-0.2,0.7-0.3,1.1-0.3
				c0.4,0,0.8,0.1,1.1,0.3c0.3,0.2,0.6,0.5,0.8,0.8c0.2,0.3,0.3,0.7,0.3,1.1C129.3,31.8,129.2,32.2,129,32.5z M128.3,30.6
				c-0.1-0.2-0.3-0.4-0.5-0.5c-0.2-0.1-0.4-0.2-0.7-0.2c-0.3,0-0.5,0.1-0.7,0.2c-0.2,0.1-0.4,0.3-0.5,0.5c-0.1,0.2-0.2,0.5-0.2,0.8
				s0.1,0.5,0.2,0.8c0.1,0.2,0.3,0.4,0.5,0.5c0.2,0.1,0.4,0.2,0.7,0.2c0.3,0,0.5-0.1,0.7-0.2c0.2-0.1,0.4-0.3,0.5-0.5
				s0.2-0.5,0.2-0.8S128.4,30.8,128.3,30.6z"/>
			<path style="fill:#FFFFFF;" d="M133.6,29.3c0.1,0.1,0.1,0.2,0.1,0.3v3.7c0,0.1,0,0.2-0.1,0.3c-0.1,0.1-0.2,0.1-0.3,0.1
				c-0.1,0-0.1,0-0.2,0s-0.1,0-0.1-0.1l-2.3-2.9v2.7c0,0.1,0,0.2-0.1,0.3c-0.1,0.1-0.1,0.1-0.3,0.1c-0.1,0-0.2,0-0.2-0.1
				s-0.1-0.2-0.1-0.3v-3.7c0-0.1,0-0.2,0.1-0.3c0.1-0.1,0.2-0.1,0.3-0.1c0.1,0,0.1,0,0.2,0c0.1,0,0.1,0.1,0.1,0.1l2.3,2.9v-2.7
				c0-0.1,0-0.2,0.1-0.3c0.1-0.1,0.1-0.1,0.2-0.1S133.5,29.2,133.6,29.3z"/>
			<path style="fill:#FFFFFF;" d="M135.3,33.5c-0.1,0.1-0.2,0.1-0.3,0.1c-0.1,0-0.2,0-0.3-0.1c-0.1-0.1-0.1-0.2-0.1-0.3v-3.6
				c0-0.1,0-0.2,0.1-0.3c0.1-0.1,0.2-0.1,0.3-0.1c0.1,0,0.2,0,0.3,0.1c0.1,0.1,0.1,0.2,0.1,0.3v3.6
				C135.4,33.3,135.4,33.4,135.3,33.5z"/>
			<path style="fill:#FFFFFF;" d="M139.6,29.7c0,0.1,0,0.2-0.1,0.3c-0.1,0.1-0.2,0.1-0.3,0.1c-0.1,0-0.1,0-0.2-0.1
				c-0.2-0.1-0.4-0.1-0.7-0.1c-0.3,0-0.5,0.1-0.8,0.2s-0.4,0.3-0.5,0.5c-0.1,0.2-0.2,0.5-0.2,0.8c0,0.5,0.1,0.9,0.4,1.1
				c0.3,0.3,0.6,0.4,1,0.4c0.3,0,0.5,0,0.7-0.1c0.1,0,0.1-0.1,0.2-0.1c0.1,0,0.2,0,0.3,0.1c0.1,0.1,0.1,0.2,0.1,0.3
				c0,0.1,0,0.1-0.1,0.2s-0.1,0.1-0.1,0.1c-0.3,0.2-0.7,0.2-1,0.2c-0.4,0-0.8-0.1-1.1-0.3c-0.3-0.2-0.6-0.4-0.8-0.8
				c-0.2-0.3-0.3-0.8-0.3-1.2c0-0.4,0.1-0.8,0.3-1.2c0.2-0.3,0.5-0.6,0.8-0.8c0.3-0.2,0.7-0.3,1.2-0.3c0.4,0,0.7,0.1,1,0.2
				C139.6,29.5,139.6,29.6,139.6,29.7z"/>
			<path style="fill:#FFFFFF;" d="M140.9,33.5c-0.2-0.1-0.5-0.2-0.7-0.4c-0.1-0.1-0.2-0.2-0.2-0.3c0-0.1,0-0.2,0.1-0.3
				c0.1-0.1,0.2-0.1,0.3-0.1c0.1,0,0.2,0,0.2,0.1c0.2,0.1,0.3,0.2,0.5,0.3c0.2,0.1,0.3,0.1,0.6,0.1c0.2,0,0.4-0.1,0.6-0.2
				s0.3-0.2,0.3-0.4c0-0.2-0.1-0.3-0.3-0.4c-0.2-0.1-0.4-0.2-0.8-0.2c-0.9-0.1-1.4-0.6-1.4-1.3c0-0.3,0.1-0.5,0.2-0.7
				c0.1-0.2,0.3-0.3,0.6-0.4s0.5-0.2,0.8-0.2c0.3,0,0.5,0,0.7,0.1c0.2,0.1,0.4,0.2,0.6,0.3c0.1,0.1,0.2,0.2,0.2,0.3
				c0,0.1,0,0.2-0.1,0.3c-0.1,0.1-0.2,0.1-0.3,0.1c-0.1,0-0.1,0-0.2-0.1c-0.1-0.1-0.3-0.2-0.5-0.2c-0.2-0.1-0.4-0.1-0.5-0.1
				c-0.3,0-0.5,0-0.6,0.1c-0.1,0.1-0.2,0.2-0.2,0.4c0,0.2,0.1,0.3,0.2,0.4c0.1,0.1,0.4,0.2,0.7,0.2c0.4,0.1,0.6,0.1,0.9,0.2
				s0.4,0.2,0.5,0.4c0.1,0.2,0.2,0.4,0.2,0.7c0,0.3-0.1,0.5-0.2,0.7c-0.1,0.2-0.3,0.4-0.6,0.5s-0.5,0.2-0.8,0.2
				C141.4,33.6,141.1,33.6,140.9,33.5z"/>
		</g>
		<g>
			<path style="fill:#FFFFFF;" d="M205.5,31.7c0.1,0.2,0.2,0.4,0.2,0.5c0,0.2-0.1,0.5-0.2,0.7c-0.1,0.2-0.3,0.4-0.5,0.5
				c-0.2,0.1-0.5,0.2-0.7,0.2c-0.3,0-0.5-0.1-0.7-0.2c-0.2-0.1-0.4-0.3-0.5-0.5c-0.1-0.2-0.2-0.4-0.2-0.7c0-0.4,0.2-0.7,0.6-1
				c-0.1-0.1-0.3-0.2-0.4-0.3c-0.1-0.1-0.1-0.3-0.1-0.5c0-0.2,0.1-0.4,0.2-0.6c0.1-0.2,0.3-0.3,0.5-0.5c0.2-0.1,0.4-0.2,0.7-0.2
				c0.3,0,0.5,0.1,0.7,0.2c0.2,0.1,0.4,0.3,0.5,0.5s0.2,0.4,0.2,0.6c0,0.2,0,0.4-0.1,0.5s-0.2,0.2-0.4,0.3
				C205.2,31.4,205.4,31.5,205.5,31.7z M204.7,32.7c0.1-0.1,0.2-0.3,0.2-0.5c0-0.2-0.1-0.3-0.2-0.5c-0.1-0.1-0.3-0.2-0.5-0.2
				c-0.2,0-0.4,0.1-0.5,0.2c-0.1,0.1-0.2,0.3-0.2,0.5c0,0.2,0.1,0.3,0.2,0.5c0.1,0.1,0.3,0.2,0.5,0.2
				C204.4,32.9,204.6,32.8,204.7,32.7z M203.8,30c-0.1,0.1-0.2,0.3-0.2,0.4c0,0.2,0.1,0.3,0.2,0.4c0.1,0.1,0.3,0.2,0.4,0.2
				c0.2,0,0.3-0.1,0.4-0.2c0.1-0.1,0.2-0.3,0.2-0.4s-0.1-0.3-0.2-0.4c-0.1-0.1-0.3-0.2-0.4-0.2C204,29.9,203.9,29.9,203.8,30z"/>
			<path style="fill:#FFFFFF;" d="M208.5,30.9c0.2,0.1,0.4,0.3,0.5,0.5s0.2,0.5,0.2,0.7c0,0.3-0.1,0.5-0.2,0.7
				c-0.1,0.2-0.3,0.4-0.5,0.5c-0.2,0.1-0.5,0.2-0.7,0.2c-0.3,0-0.5-0.1-0.8-0.2c-0.2-0.2-0.4-0.4-0.5-0.6c-0.1-0.3-0.2-0.5-0.2-0.8
				c0-0.3,0.1-0.6,0.2-1c0.1-0.4,0.3-0.7,0.6-1c0.3-0.3,0.7-0.6,1.2-0.7c0.1,0,0.1,0,0.1,0c0.1,0,0.2,0,0.3,0.1s0.1,0.1,0.1,0.3
				c0,0.1,0,0.2-0.1,0.2c-0.1,0.1-0.1,0.1-0.2,0.1c-0.3,0.1-0.5,0.2-0.7,0.4c-0.2,0.2-0.4,0.4-0.5,0.7c0.2-0.2,0.4-0.3,0.7-0.3
				C208.1,30.7,208.3,30.8,208.5,30.9z M208.3,32.7c0.1-0.1,0.2-0.3,0.2-0.5c0-0.2-0.1-0.4-0.2-0.5c-0.1-0.1-0.3-0.2-0.5-0.2
				c-0.2,0-0.4,0.1-0.5,0.2c-0.1,0.1-0.2,0.3-0.2,0.5c0,0.2,0.1,0.4,0.2,0.5c0.1,0.1,0.3,0.2,0.5,0.2
				C208,32.9,208.1,32.9,208.3,32.7z"/>
			<path style="fill:#FFFFFF;" d="M212,30.9c0.2,0.1,0.4,0.3,0.5,0.5s0.2,0.5,0.2,0.7c0,0.3-0.1,0.5-0.2,0.7
				c-0.1,0.2-0.3,0.4-0.5,0.5c-0.2,0.1-0.5,0.2-0.7,0.2c-0.3,0-0.5-0.1-0.8-0.2c-0.2-0.2-0.4-0.4-0.5-0.6c-0.1-0.3-0.2-0.5-0.2-0.8
				c0-0.3,0.1-0.6,0.2-1c0.1-0.4,0.3-0.7,0.6-1c0.3-0.3,0.7-0.6,1.2-0.7c0.1,0,0.1,0,0.1,0c0.1,0,0.2,0,0.3,0.1s0.1,0.1,0.1,0.3
				c0,0.1,0,0.2-0.1,0.2c-0.1,0.1-0.1,0.1-0.2,0.1c-0.3,0.1-0.5,0.2-0.7,0.4c-0.2,0.2-0.4,0.4-0.5,0.7c0.2-0.2,0.4-0.3,0.7-0.3
				C211.5,30.7,211.8,30.8,212,30.9z M211.7,32.7c0.1-0.1,0.2-0.3,0.2-0.5c0-0.2-0.1-0.4-0.2-0.5c-0.1-0.1-0.3-0.2-0.5-0.2
				c-0.2,0-0.4,0.1-0.5,0.2c-0.1,0.1-0.2,0.3-0.2,0.5c0,0.2,0.1,0.4,0.2,0.5c0.1,0.1,0.3,0.2,0.5,0.2
				C211.4,32.9,211.6,32.9,211.7,32.7z"/>
			<path style="fill:#FFFFFF;" d="M214,33.4c-0.3-0.2-0.4-0.5-0.6-0.8c-0.1-0.3-0.2-0.7-0.2-1.2s0.1-0.8,0.2-1.2
				c0.1-0.3,0.3-0.6,0.6-0.8s0.6-0.3,0.9-0.3s0.7,0.1,0.9,0.3s0.4,0.5,0.6,0.8c0.1,0.3,0.2,0.7,0.2,1.2s-0.1,0.8-0.2,1.2
				c-0.1,0.3-0.3,0.6-0.6,0.8c-0.3,0.2-0.6,0.3-0.9,0.3S214.2,33.5,214,33.4z M215.5,32.5c0.2-0.3,0.2-0.6,0.2-1.1s-0.1-0.9-0.2-1.1
				s-0.4-0.4-0.6-0.4s-0.5,0.1-0.6,0.4c-0.2,0.3-0.2,0.6-0.2,1.1s0.1,0.9,0.2,1.1c0.2,0.3,0.4,0.4,0.6,0.4S215.4,32.8,215.5,32.5z"
				/>
			<path style="fill:#FFFFFF;" d="M223.1,29.3c0.1,0.1,0.1,0.2,0.1,0.3v3.6c0,0.1,0,0.2-0.1,0.3s-0.2,0.1-0.3,0.1s-0.2,0-0.3-0.1
				c-0.1-0.1-0.1-0.2-0.1-0.3v-2.5l-1,1.6c0,0.1-0.1,0.1-0.1,0.1c-0.1,0-0.1,0-0.2,0c-0.1,0-0.1,0-0.2,0c-0.1,0-0.1-0.1-0.1-0.1
				l-1-1.6v2.6c0,0.1,0,0.2-0.1,0.3c-0.1,0.1-0.2,0.1-0.3,0.1c-0.1,0-0.2,0-0.3-0.1c-0.1-0.1-0.1-0.2-0.1-0.3v-3.6
				c0-0.1,0-0.2,0.1-0.3s0.2-0.1,0.3-0.1c0.1,0,0.1,0,0.2,0c0.1,0,0.1,0.1,0.1,0.1l1.4,2.1l1.4-2.1c0,0,0.1-0.1,0.1-0.1
				c0.1,0,0.1,0,0.2,0C223,29.2,223.1,29.2,223.1,29.3z"/>
			<path style="fill:#FFFFFF;" d="M227.6,33c0,0,0,0.1,0,0.1c0,0.1,0,0.2-0.1,0.3s-0.2,0.1-0.3,0.1c-0.1,0-0.1,0-0.2,0
				c-0.1,0-0.1-0.1-0.1-0.1l-1.4-1.8l-0.6,0.6v1c0,0.1,0,0.2-0.1,0.3c-0.1,0.1-0.2,0.1-0.3,0.1c-0.1,0-0.2,0-0.3-0.1
				c-0.1-0.1-0.1-0.2-0.1-0.3v-3.6c0-0.1,0-0.2,0.1-0.3c0.1-0.1,0.2-0.1,0.3-0.1c0.1,0,0.2,0,0.3,0.1s0.1,0.2,0.1,0.3v1.7l2-2
				c0.1-0.1,0.2-0.1,0.3-0.1c0.1,0,0.2,0,0.2,0.1c0.1,0.1,0.1,0.2,0.1,0.3c0,0.1,0,0.2-0.1,0.2l-1.4,1.3l1.4,1.9
				C227.6,33,227.6,33,227.6,33z"/>
			<path style="fill:#FFFFFF;" d="M229,33.5c-0.1,0.1-0.2,0.1-0.3,0.1c-0.1,0-0.2,0-0.3-0.1c-0.1-0.1-0.1-0.2-0.1-0.3v-3.6
				c0-0.1,0-0.2,0.1-0.3c0.1-0.1,0.2-0.1,0.3-0.1c0.1,0,0.2,0,0.3,0.1c0.1,0.1,0.1,0.2,0.1,0.3v3.6C229.1,33.3,229.1,33.4,229,33.5z
				"/>
			<path style="fill:#FFFFFF;" d="M230.7,33.5c-0.1,0.1-0.2,0.1-0.3,0.1c-0.1,0-0.2,0-0.3-0.1c-0.1-0.1-0.1-0.2-0.1-0.3v-3.6
				c0-0.1,0-0.2,0.1-0.3c0.1-0.1,0.2-0.1,0.3-0.1c0.1,0,0.2,0,0.3,0.1c0.1,0.1,0.1,0.2,0.1,0.3v3.6
				C230.8,33.3,230.8,33.4,230.7,33.5z"/>
		</g>
	</g>
</g>
<g id="ats_x5F_btn_x5F_main">
	<circle style="fill:#231F20;" cx="40.9" cy="117.5" r="8.7"/>
	<path style="fill:#FFFFFF;" d="M45.1,114.3C45.1,114.3,45.1,114.2,45.1,114.3l-1.9-2.4c0,0-0.1,0-0.1,0h-0.7h-3.2h-0.6
		c0,0-0.1,0-0.1,0l-1.9,2.4c0,0,0,0,0,0c0,0,0,0,0,0.1v1.8c0,0.1,0.1,0.1,0.1,0.1h0.7c0.1,0,0.1-0.1,0.1-0.1v-1.6h1.2l-0.3,2.5
		c0,0,0,0,0,0c0,0,0,0,0,0l-0.6,6c0,0.1,0,0.1,0.1,0.1c0,0,0,0,0,0c0.1,0,0.1,0,0.1-0.1l0.2-1.8h5l0.2,1.8c0,0.1,0.1,0.1,0.1,0.1
		c0.1,0,0.1-0.1,0.1-0.1l-0.9-8.6h1.5v1.6c0,0.1,0.1,0.1,0.1,0.1H45c0.1,0,0.1-0.1,0.1-0.1L45.1,114.3
		C45.1,114.3,45.1,114.3,45.1,114.3z M38.9,115.4l1.6,1.5h-1.7L38.9,115.4z M42.9,118.8H41l1.7-1.7h0L42.9,118.8
		C43,118.8,42.9,118.8,42.9,118.8z M40.7,118.7l-1.7-1.6h3.3L40.7,118.7z M38.7,117.1L38.7,117.1l1.8,1.7h-1.9c0,0,0,0-0.1,0
		L38.7,117.1z M42.8,119l-2.1,2l-2.1-2H42.8z M41,116.9l1.6-1.5l0.2,1.5H41z M40.7,116.8l-1.7-1.6h3.3L40.7,116.8z M40,114.2
		l-0.6-0.6h2.7l-0.6,0.6H40z M41.3,114.4l-0.5,0.5l-0.5-0.5H41.3z M40.5,113.4h-1.4l0.1-1.3L40.5,113.4z M39.4,112h2.7l-1.4,1.3
		L39.4,112z M39.1,113.6L39.1,113.6l0.6,0.6H39L39.1,113.6z M42.4,113.6L42.4,113.6l0.1,0.6h-0.7L42.4,113.6z M41,113.4l1.3-1.3
		l0.1,1.3H41z M37.3,115.9h-0.4v-1.5h0.4V115.9z M37.4,114.2H37l1.7-2.2H39l-0.2,2.2H37.4z M39.9,114.4l0.6,0.6H39c0,0,0,0,0,0
		l0.1-0.6H39.9z M38.5,119.1l2,1.9h-2.2L38.5,119.1z M41,121.1l2-1.9l0.2,1.9H41z M42.6,115C42.6,115,42.6,115,42.6,115l-1.6,0
		l0.6-0.6h0.9L42.6,115z M42.5,112H43l1.7,2.2h-0.4h-1.6L42.5,112z M44.9,115.9h-0.4v-1.5h0.4V115.9z"/>
</g>
<g id="ats_x5F_btn_x5F_gen">
	<circle style="fill:#231F20;" cx="217.6" cy="117.5" r="8.7"/>
	<path style="fill:#FFFFFF;" d="M223.7,113.5h-12.2c-0.1,0-0.3-0.1-0.3-0.3s0.1-0.3,0.3-0.3h12.2c0.1,0,0.3,0.1,0.3,0.3
		S223.8,113.5,223.7,113.5z"/>
	<path style="fill:#FFFFFF;" d="M221.3,117.7c-0.1,0-0.3-0.1-0.3-0.3v-4.2c0-0.1,0.1-0.3,0.3-0.3s0.3,0.1,0.3,0.3v4.2
		C221.6,117.6,221.4,117.7,221.3,117.7z"/>
	<path style="fill:#FFFFFF;" d="M221.3,122.5c-0.1,0-0.3-0.1-0.3-0.3v-3c0-0.1,0-0.1,0.1-0.2l1.6-1.6c0.1-0.1,0.3-0.1,0.4,0
		s0.1,0.3,0,0.4l-1.5,1.5v2.9C221.6,122.4,221.4,122.5,221.3,122.5z"/>
	<path style="fill:#FFFFFF;" d="M217.6,117.7c-0.1,0-0.3-0.1-0.3-0.3v-4.2c0-0.1,0.1-0.3,0.3-0.3s0.3,0.1,0.3,0.3v4.2
		C217.8,117.6,217.7,117.7,217.6,117.7z"/>
	<path style="fill:#FFFFFF;" d="M217.6,122.5c-0.1,0-0.3-0.1-0.3-0.3v-3c0-0.1,0-0.1,0.1-0.2l1.6-1.6c0.1-0.1,0.3-0.1,0.4,0
		s0.1,0.3,0,0.4l-1.5,1.5v2.9C217.8,122.4,217.7,122.5,217.6,122.5z"/>
	<path style="fill:#FFFFFF;" d="M213.6,117.7c-0.1,0-0.3-0.1-0.3-0.3v-4.2c0-0.1,0.1-0.3,0.3-0.3s0.3,0.1,0.3,0.3v4.2
		C213.9,117.6,213.8,117.7,213.6,117.7z"/>
	<path style="fill:#FFFFFF;" d="M213.6,122.5c-0.1,0-0.3-0.1-0.3-0.3v-3c0-0.1,0-0.1,0.1-0.2l1.6-1.6c0.1-0.1,0.3-0.1,0.4,0
		s0.1,0.3,0,0.4l-1.5,1.5v2.9C213.9,122.4,213.8,122.5,213.6,122.5z"/>
	<circle style="fill:#FFFFFF;" cx="221.3" cy="113.2" r="0.6"/>
	<circle style="fill:#FFFFFF;" cx="217.6" cy="113.2" r="0.6"/>
	<circle style="fill:#FFFFFF;" cx="213.6" cy="113.2" r="0.6"/>
</g>
<g id="ats_x5F_led_x5F_main">
	<circle style="fill:#EC2227;" cx="40.8" cy="133.6" r="2.6"/>
</g>
<g id="ats_x5F_led_x5F_qmain">
	<circle style="fill:#EC2227;" cx="78.7" cy="133.6" r="2.6"/>
</g>
<g id="ats_x5F_led_x5F_qgen">
	<circle style="fill:#A8AAAD;" cx="180.3" cy="133.6" r="2.6"/>
</g>
<g id="ats_x5F_led_x5F_gen">
	<circle style="fill:#A8AAAD;" cx="218.2" cy="133.6" r="2.6"/>
</g>
<g id="ats_x5F_bg_x5F_status">
	<path style="fill:#06A64F;" d="M223.3,98.3H79.5c-4.4,0-8-3.6-8-8V46.1c0-4.4,3.6-8,8-8h143.8c4.4,0,8,3.6,8,8v44.2
		C231.3,94.7,227.7,98.3,223.3,98.3z"/>
</g>
<g id="ats_x5F_text_x5F_status">
	<text transform="matrix(1 0 0 1 134.2169 76.0616)" style="fill:#FFFFFF; font-family:'Quicksand-Bold'; font-size:24.2801px;">OK</text>
</g>
<g id="ats_x5F_btn_x5F_start">
	<circle style="fill:#06A64F;" cx="217.6" cy="159.4" r="8.7"/>
	<rect x="216.4" y="153.6" style="fill:#E6E7E7;" width="2.4" height="11.5"/>
</g>
<g id="ats_x5F_btn_x5F_silence">
	<circle style="fill:#E6E7E7;" cx="182.3" cy="160.6" r="8.7"/>
	<polygon style="fill:#424143;" points="180.7,160 180.7,159.8 180.7,158.3 178.1,158.3 178.1,162.3 180.7,162.3 180.7,161 
		186.6,162.6 186.6,158.1 	"/>
	<path style="fill:#EC2227;" d="M182.3,168c-4.1,0-7.4-3.3-7.4-7.4c0-4.1,3.3-7.4,7.4-7.4s7.4,3.3,7.4,7.4
		C189.7,164.6,186.4,168,182.3,168z M182.3,153.7c-3.8,0-6.9,3.1-6.9,6.9s3.1,6.9,6.9,6.9s6.9-3.1,6.9-6.9S186.1,153.7,182.3,153.7z
		"/>
	
		<rect x="182" y="153.6" transform="matrix(0.7192 -0.6948 0.6948 0.7192 -60.4773 171.7359)" style="fill:#EC2227;" width="0.5" height="14.2"/>
</g>
<g id="ats_x5F_btn_x5F_auto">
	<circle style="fill:#E6E7E7;" cx="146.8" cy="161.4" r="8.7"/>
	<g>
		<path style="fill:#424143;" d="M154,162h-0.5v-2.5c0-0.5-0.4-0.9-0.9-0.9H152l-0.9-0.5v0.5h-10c-0.5,0-0.9,0.4-0.9,0.9v0.2
			l-0.5,0.9h0.5v2.6c0,0.5,0.4,0.9,0.9,0.9h0.3l0.9,0.5v-0.5h10.3c0.5,0,0.9-0.4,0.9-0.9v-0.3L154,162z M152.6,163.8h-10.3v-0.5
			l-0.9,0.5h-0.3c-0.3,0-0.6-0.3-0.6-0.6v-2.6h0.5l-0.5-0.9v-0.2c0-0.3,0.3-0.6,0.6-0.6h10v0.5l0.9-0.5h0.6c0.3,0,0.6,0.3,0.6,0.6
			v2.5h-0.5l0.5,0.9v0.3C153.2,163.5,153,163.8,152.6,163.8z"/>
		<g>
			<path style="fill:#424143;" d="M144.4,162.3c0,0.1,0,0.1-0.1,0.2c0,0-0.1,0.1-0.1,0.1c0,0-0.1,0-0.1,0c0,0-0.1-0.1-0.1-0.1
				l-0.2-0.4h-1.1l-0.2,0.4c0,0,0,0.1-0.1,0.1c0,0-0.1,0-0.1,0c-0.1,0-0.1,0-0.1-0.1c0,0,0-0.1,0-0.1c0,0,0,0,0-0.1l0.9-2.2
				c0,0,0-0.1,0.1-0.1c0,0,0.1,0,0.1,0c0,0,0.1,0,0.1,0c0,0,0.1,0.1,0.1,0.1L144.4,162.3C144.4,162.2,144.4,162.3,144.4,162.3z
				 M142.9,161.5h0.7l-0.4-0.9L142.9,161.5z"/>
			<path style="fill:#424143;" d="M146.6,160c0,0,0.1,0.1,0.1,0.2v1.3c0,0.2,0,0.4-0.1,0.5c-0.1,0.2-0.2,0.3-0.4,0.4
				c-0.2,0.1-0.3,0.1-0.5,0.1c-0.2,0-0.4,0-0.5-0.1c-0.2-0.1-0.3-0.2-0.4-0.4c-0.1-0.2-0.1-0.3-0.1-0.5v-1.3c0-0.1,0-0.1,0.1-0.2
				c0,0,0.1-0.1,0.2-0.1c0.1,0,0.1,0,0.2,0.1c0,0,0.1,0.1,0.1,0.2v1.3c0,0.1,0,0.2,0.1,0.3c0.1,0.1,0.1,0.2,0.2,0.2
				c0.1,0,0.2,0.1,0.3,0.1c0.1,0,0.2,0,0.3-0.1c0.1,0,0.2-0.1,0.2-0.2c0.1-0.1,0.1-0.2,0.1-0.3v-1.3c0-0.1,0-0.1,0.1-0.2
				c0,0,0.1-0.1,0.2-0.1C146.5,159.9,146.6,159.9,146.6,160z"/>
			<path style="fill:#424143;" d="M149.1,160c0,0,0.1,0.1,0.1,0.2c0,0.1,0,0.1-0.1,0.2c0,0-0.1,0.1-0.2,0.1h-0.6v1.9
				c0,0.1,0,0.1-0.1,0.2c0,0-0.1,0.1-0.2,0.1c-0.1,0-0.1,0-0.2-0.1c0,0-0.1-0.1-0.1-0.2v-1.9h-0.6c-0.1,0-0.1,0-0.2-0.1
				c0,0-0.1-0.1-0.1-0.2c0-0.1,0-0.1,0.1-0.2c0,0,0.1-0.1,0.2-0.1h1.6C149,159.9,149,159.9,149.1,160z"/>
			<path style="fill:#424143;" d="M151.6,161.9c-0.1,0.2-0.3,0.4-0.4,0.5c-0.2,0.1-0.4,0.2-0.6,0.2c-0.2,0-0.5-0.1-0.6-0.2
				c-0.2-0.1-0.3-0.3-0.4-0.5c-0.1-0.2-0.2-0.4-0.2-0.7c0-0.2,0.1-0.5,0.2-0.7c0.1-0.2,0.3-0.4,0.4-0.5c0.2-0.1,0.4-0.2,0.6-0.2
				c0.2,0,0.5,0.1,0.6,0.2c0.2,0.1,0.3,0.3,0.4,0.5c0.1,0.2,0.2,0.4,0.2,0.7C151.8,161.4,151.7,161.7,151.6,161.9z M151.2,160.8
				c-0.1-0.1-0.2-0.2-0.3-0.3c-0.1-0.1-0.2-0.1-0.4-0.1c-0.1,0-0.3,0-0.4,0.1c-0.1,0.1-0.2,0.2-0.3,0.3c-0.1,0.1-0.1,0.3-0.1,0.4
				c0,0.2,0,0.3,0.1,0.4c0.1,0.1,0.2,0.2,0.3,0.3c0.1,0.1,0.2,0.1,0.4,0.1c0.1,0,0.3,0,0.4-0.1c0.1-0.1,0.2-0.2,0.3-0.3
				c0.1-0.1,0.1-0.3,0.1-0.4C151.3,161,151.3,160.9,151.2,160.8z"/>
		</g>
	</g>
</g>
<g id="ats_x5F_btn_x5F_test">
	<circle style="fill:#E6E7E7;" cx="111.4" cy="161.4" r="8.7"/>
	<path style="fill:#424143;" d="M115.6,158.2C115.6,158.2,115.6,158.2,115.6,158.2l-1.9-2.4c0,0-0.1,0-0.1,0h-0.7h-3.2h-0.6
		c0,0-0.1,0-0.1,0l-1.9,2.4c0,0,0,0,0,0c0,0,0,0,0,0.1v1.8c0,0.1,0.1,0.1,0.1,0.1h0.7c0.1,0,0.1-0.1,0.1-0.1v-1.6h1.2l-0.3,2.5
		c0,0,0,0,0,0c0,0,0,0,0,0l-0.6,6c0,0.1,0,0.1,0.1,0.1c0,0,0,0,0,0c0.1,0,0.1,0,0.1-0.1l0.2-1.8h5l0.2,1.8c0,0.1,0.1,0.1,0.1,0.1
		c0.1,0,0.1-0.1,0.1-0.1l-0.9-8.6h1.5v1.6c0,0.1,0.1,0.1,0.1,0.1h0.7c0.1,0,0.1-0.1,0.1-0.1L115.6,158.2
		C115.6,158.2,115.6,158.2,115.6,158.2z M109.4,159.3l1.6,1.5h-1.7L109.4,159.3z M113.4,162.7h-1.9l1.7-1.7h0L113.4,162.7
		C113.5,162.7,113.4,162.7,113.4,162.7z M111.2,162.7l-1.7-1.6h3.3L111.2,162.7z M109.2,161.1L109.2,161.1l1.8,1.7h-1.9
		c0,0,0,0-0.1,0L109.2,161.1z M113.3,163l-2.1,2l-2.1-2H113.3z M111.5,160.8l1.6-1.5l0.2,1.5H111.5z M111.2,160.8l-1.7-1.6h3.3
		L111.2,160.8z M110.5,158.2l-0.6-0.6h2.7l-0.6,0.6H110.5z M111.8,158.4l-0.5,0.5l-0.5-0.5H111.8z M111,157.3h-1.4l0.1-1.3
		L111,157.3z M109.9,156h2.7l-1.4,1.3L109.9,156z M109.6,157.6L109.6,157.6l0.6,0.6h-0.7L109.6,157.6z M112.9,157.6L112.9,157.6
		l0.1,0.6h-0.7L112.9,157.6z M111.5,157.3l1.3-1.3l0.1,1.3H111.5z M107.8,159.9h-0.4v-1.5h0.4V159.9z M107.9,158.2h-0.4l1.7-2.2h0.4
		l-0.2,2.2H107.9z M110.4,158.4l0.6,0.6h-1.5c0,0,0,0,0,0l0.1-0.6H110.4z M109,163.1l2,1.9h-2.2L109,163.1z M111.5,165l2-1.9
		l0.2,1.9H111.5z M113.1,159C113.1,159,113.1,159,113.1,159l-1.6,0l0.6-0.6h0.9L113.1,159z M113,156h0.5l1.7,2.2h-0.4h-1.6L113,156z
		 M115.4,159.9H115v-1.5h0.4V159.9z"/>
	<path style="fill:#EC2227;" d="M111.3,168.6c-4.1,0-7.4-3.3-7.4-7.4s3.3-7.4,7.4-7.4c4.1,0,7.4,3.3,7.4,7.4
		S115.3,168.6,111.3,168.6z M111.3,154.4c-3.8,0-6.9,3.1-6.9,6.9s3.1,6.9,6.9,6.9s6.9-3.1,6.9-6.9S115.1,154.4,111.3,154.4z"/>
	
		<rect x="110.9" y="154.2" transform="matrix(0.7192 -0.6948 0.6948 0.7192 -80.8841 122.5499)" style="fill:#EC2227;" width="0.5" height="14.2"/>
</g>
<g id="ats_x5F_btn_x5F_manual">
	<circle style="fill:#E6E7E7;" cx="76.1" cy="160.6" r="8.7"/>
	<path style="fill:#424143;" d="M79.2,158.1c-0.2-0.1-0.4-0.1-0.6,0c-0.2-0.3-0.7-0.6-1.2-0.5c-0.1-0.2-0.3-0.4-0.6-0.5
		c-0.2-0.1-0.4-0.1-0.6-0.1v-1.7c0-0.6-0.6-1-1.1-1c-0.5,0-1.1,0.3-1.1,1v4.1c-0.3-0.2-0.7-0.5-1-0.5c-0.2,0-0.4,0.1-0.6,0.2
		c-0.7,0.7-0.3,1.3-0.1,1.9c0.3,0.5,1.9,3,2.1,3.3c0.1,0.2,0.1,0.9,0.1,1.2l0,0.2c0,0.2,0.2,0.3,0.3,0.3h3.9c0.2,0,0.3-0.2,0.3-0.3
		v-0.7c0-0.3,0.3-0.9,0.7-1.3c0.3-0.4,0.4-1,0.4-1.4v-2.7C80.2,159.1,79.7,158.4,79.2,158.1z M79.5,162.2c0,0.2,0,0.7-0.2,1
		c-0.2,0.3-0.8,1.1-0.8,1.7v0.4h-3.3c0-0.6,0-1.2-0.2-1.4c-0.2-0.2-1.7-2.6-2-3.2c-0.3-0.6-0.4-0.7,0-1.1c0.3,0,0.8,0.5,1.1,0.8
		c0.1,0.1,0.2,0.1,0.4,0.1c0.1-0.1,0.2-0.2,0.2-0.3v-4.9c0-0.3,0.4-0.4,0.4-0.4c0.1,0,0.4,0.1,0.4,0.3v2.2c0,0,0,0,0,0v2
		c0,0.2,0.2,0.3,0.3,0.3s0.3-0.2,0.3-0.3v-1.8c0.1,0,0.2-0.1,0.3,0c0.1,0,0.2,0.1,0.2,0.2c0,0,0,0,0,0v2.1c0,0.2,0.2,0.3,0.3,0.3
		s0.3-0.2,0.3-0.3v-1.8c0.4-0.1,0.6,0.2,0.7,0.3v2c0,0.2,0.2,0.3,0.3,0.3c0.2,0,0.3-0.2,0.3-0.3v-1.8c0,0,0.1,0,0.1,0
		c0.3,0.1,0.6,0.6,0.6,0.8V162.2z"/>
</g>
<g id="ats_x5F_btn_x5F_stop">
	<circle style="fill:#EC2227;" cx="40.9" cy="159.4" r="8.7"/>
	<g>
		<path style="fill:#FFFFFF;" d="M44.8,161.7c-0.4,0.7-0.9,1.3-1.6,1.7c-0.7,0.4-1.5,0.6-2.3,0.6s-1.6-0.2-2.3-0.6
			c-0.7-0.4-1.2-1-1.6-1.7c-0.4-0.7-0.6-1.5-0.6-2.4c0-0.9,0.2-1.7,0.6-2.4c0.4-0.7,0.9-1.3,1.6-1.7c0.7-0.4,1.5-0.6,2.3-0.6
			s1.6,0.2,2.3,0.6c0.7,0.4,1.2,1,1.6,1.7c0.4,0.7,0.6,1.5,0.6,2.4C45.4,160.2,45.2,161,44.8,161.7z M43.3,157.8
			c-0.2-0.5-0.6-0.9-1-1.1s-0.9-0.4-1.4-0.4c-0.5,0-1,0.1-1.4,0.4c-0.4,0.3-0.7,0.7-1,1.1c-0.2,0.5-0.4,1-0.4,1.6
			c0,0.6,0.1,1.1,0.4,1.6c0.2,0.5,0.6,0.9,1,1.1c0.4,0.3,0.9,0.4,1.4,0.4c0.5,0,1-0.1,1.4-0.4c0.4-0.3,0.8-0.7,1-1.1
			c0.2-0.5,0.4-1,0.4-1.6C43.6,158.8,43.5,158.2,43.3,157.8z"/>
	</g>
</g>
</svg>
