<svg xmlns="http://www.w3.org/2000/svg" width="30.216" height="29.424" viewBox="0 0 30.216 29.424">
  <g id="Group_2834" data-name="Group 2834" transform="translate(-256.518 -400.218)">
    <path id="Path_3238" data-name="Path 3238" d="M304.307,437.389h-2.722v-2.722a.544.544,0,0,0-1.089,0v3.266a.544.544,0,0,0,.544.544h3.266a.544.544,0,1,0,0-1.089Z" transform="translate(-22.143 -17.465)" fill="#d0d4e6"/>
    <path id="Path_3239" data-name="Path 3239" d="M280.734,416.439H266.321v17.085H277v-10.6h9.609v-6.48h-5.872Zm-9.609,15.906h-3.737v-4.124h3.737Zm0-5.3h-3.737v-4.124h3.737Zm0-5.3h-3.737v-4.124h3.737Zm4.8,10.6h-3.737v-4.124h3.737Zm0-5.3h-3.737v-4.124h3.737Zm0-5.3h-3.737v-4.124h3.737Zm4.8,0H277v-4.124h3.737Zm4.8,0H281.8v-4.124h3.737Z" transform="translate(-4.467 -9.152)" fill="#d0d4e6"/>
    <path id="Path_3240" data-name="Path 3240" d="M281.4,403.869v-3.159a.5.5,0,0,0-.509-.493h-4.58a.5.5,0,0,0-.509.493v.253a15.382,15.382,0,0,0-9.019.191v-.444a.5.5,0,0,0-.509-.493h-4.58a.5.5,0,0,0-.509.493v3.737a14.367,14.367,0,0,0-4.663,10.563,14.875,14.875,0,0,0,15.108,14.631,15.324,15.324,0,0,0,10.193-3.833,5.938,5.938,0,0,0,3.673-4.984,14.188,14.188,0,0,0,1.243-5.814A14.425,14.425,0,0,0,281.4,403.869Zm-4.58-2.666h3.562v3.45h-3.562Zm-14.617,0h3.562v3.45H262.2Zm22.287,19.4h0a4.8,4.8,0,0,1-.959,2.661l0,0a5.047,5.047,0,0,1-.994,1l-.006,0a5.143,5.143,0,0,1-1.252.693,5.207,5.207,0,0,1-1.863.346,4.931,4.931,0,1,1,5.089-4.928C284.5,420.453,284.489,420.526,284.486,420.6Zm.744-2.006a6.1,6.1,0,0,0-5.821-4.131,5.917,5.917,0,1,0,0,11.828c.052,0,.1-.006.156-.007a14.362,14.362,0,0,1-7.938,2.382,13.884,13.884,0,0,1-14.1-13.656,13.38,13.38,0,0,1,3.92-9.441.509.509,0,0,0,.245.069h4.58a.5.5,0,0,0,.509-.493v-2.958a14.4,14.4,0,0,1,9.019-.211v3.169a.5.5,0,0,0,.509.493h4.58a.5.5,0,0,0,.5-.472,13.408,13.408,0,0,1,4.335,9.844A13.235,13.235,0,0,1,285.23,418.594Z" transform="translate(0 0)" fill="#d0d4e6"/>
  </g>
</svg>
