<svg id="Group_2316" data-name="Group 2316" xmlns="http://www.w3.org/2000/svg" width="30.236" height="43.866" viewBox="0 0 30.236 43.866">
  <path id="Path_3837" data-name="Path 3837" d="M426.026,443.154l-9.444,28.2h6.948l1.859-6.716h9.172l1.849,6.716H443.6l-9.441-28.2Zm.736,16.53.721-2.611c.837-2.819,1.639-6.119,2.367-9.1h.183c.8,2.94,1.609,6.277,2.444,9.1l.721,2.611Z" transform="translate(-414.063 -427.491)" fill="#FFBD6E"/>
  <path id="Path_3838" data-name="Path 3838" d="M442.661,435.832a2.031,2.031,0,0,0-2.273,1.8,4.793,4.793,0,0,1-4.051,3.967,4.725,4.725,0,0,1-5.128-2.418h0l-.006-.01,0,0h0a9.058,9.058,0,0,0-16.946,2.876,2.048,2.048,0,0,0,1.805,2.269,1.8,1.8,0,0,0,.234.014,2.048,2.048,0,0,0,2.035-1.819,4.8,4.8,0,0,1,4.053-3.965,4.729,4.729,0,0,1,5.136,2.435l0,.006a8.9,8.9,0,0,0,7.846,4.8,10.168,10.168,0,0,0,1.649-.139,8.894,8.894,0,0,0,7.446-7.545A2.052,2.052,0,0,0,442.661,435.832Z" transform="translate(-414.241 -434.357)" fill="#FFBD6E"/>
</svg>
