<svg xmlns="http://www.w3.org/2000/svg" width="40.67" height="40.67" viewBox="0 0 40.67 40.67">
  <g id="Group_2836" data-name="Group 2836" transform="translate(-526.675 -400.546)">
    <path id="Path_3272" data-name="Path 3272" d="M547.01,400.546a20.335,20.335,0,1,0,20.335,20.335A20.335,20.335,0,0,0,547.01,400.546Zm0,39.315a18.98,18.98,0,1,1,18.98-18.979A18.979,18.979,0,0,1,547.01,439.861Z" transform="translate(0 0)" fill="#FFBD6E"/>
    <rect id="Rectangle_1888" data-name="Rectangle 1888" width="2.658" height="1.329" transform="translate(531.725 419.871)" fill="#FFBD6E"/>
    <rect id="Rectangle_1889" data-name="Rectangle 1889" width="2.658" height="1.329" transform="translate(559.636 419.871)" fill="#FFBD6E"/>
    <rect id="Rectangle_1890" data-name="Rectangle 1890" width="2.658" height="1.329" transform="translate(557.613 413.647) rotate(-29.993)" fill="#FFBD6E"/>
    <rect id="Rectangle_1891" data-name="Rectangle 1891" width="1.329" height="2.658" transform="translate(533.441 413.469) rotate(-60.007)" fill="#FFBD6E"/>
    <rect id="Rectangle_1892" data-name="Rectangle 1892" width="1.329" height="2.658" transform="translate(538.79 407.631) rotate(-29.993)" fill="#FFBD6E"/>
    <rect id="Rectangle_1893" data-name="Rectangle 1893" width="1.329" height="2.658" transform="translate(546.345 405.251)" fill="#FFBD6E"/>
    <rect id="Rectangle_1894" data-name="Rectangle 1894" width="2.658" height="1.329" transform="matrix(0.5, -0.866, 0.866, 0.5, 552.747, 409.268)" fill="#FFBD6E"/>
    <path id="Path_3273" data-name="Path 3273" d="M555.544,423.78a.97.97,0,1,0,.97.975l7.5-8.851-8.412,7.882C555.584,423.785,555.565,423.78,555.544,423.78Z" transform="translate(-8.789 -4.838)" fill="#FFBD6E"/>
    <path id="Path_3274" data-name="Path 3274" d="M535.09,436.706h1.422v-.743H535.09v-.786h1.67v-.743h-2.612v3.917h2.676v-.742H535.09Z" transform="translate(-2.354 -10.676)" fill="#FFBD6E"/>
    <path id="Path_3275" data-name="Path 3275" d="M577.638,435.177v-.743h-2.631v3.917h.943v-1.523h1.442v-.743h-1.442v-.908Z" transform="translate(-15.226 -10.676)" fill="#FFBD6E"/>
    <path id="Path_3276" data-name="Path 3276" d="M554.959,439.458l-6.829,0c-.3,0-.444.139-.438.443s0,.615,0,.927a6.669,6.669,0,0,0-.852.118c-1.337.373-1.805,2.555-.76,3.589a2.38,2.38,0,0,0,.787.464c.253.1.67.033.779.2.139.209.046.575.045.873s.148.418.427.418q3.414,0,6.829,0c.311,0,.471-.143.471-.459q0-3.053,0-6.1A.408.408,0,0,0,554.959,439.458Zm-7.288,4.854a1.036,1.036,0,0,1-1.386-.914,6.3,6.3,0,0,1,0-.722,1.06,1.06,0,0,1,1.39-1.059Z" transform="translate(-5.934 -12.258)" fill="#FFBD6E"/>
    <path id="Path_3277" data-name="Path 3277" d="M565.209,441.985c-.014-.372-.175-.518-.525-.421q-1.756.486-3.5,1.006a.314.314,0,0,0-.18.231c-.011,1.192-.007,2.384-.007,3.647.12-.074.178-.106.231-.144.962-.687,1.877-1.454,2.9-2.04a1.943,1.943,0,0,0,1.087-2.244A.3.3,0,0,1,565.209,441.985Z" transform="translate(-10.812 -12.913)" fill="#FFBD6E"/>
    <path id="Path_3278" data-name="Path 3278" d="M555.248,437.468h-3.479v.643h3.479Z" transform="translate(-7.905 -11.632)" fill="#FFBD6E"/>
  </g>
</svg>
