<svg xmlns="http://www.w3.org/2000/svg" width="466" height="348.59" viewBox="0 0 466 348.59">
  <g id="Group_2876" data-name="Group 2876" transform="translate(-295.452 -606.871)">
    <path id="Path_5354" data-name="Path 5354" d="M731.14,613.943s30.312,1.617,30.312,32.535V916.813s-.81,29.555-30.312,31.675-126.907,6.973-194.807,6.973-193.19-4.85-210.568-7.276-30.312-13.943-30.312-31.928V646.125s.3-29.353,30.161-32.182,158.784-7.072,202.838-7.072S731.14,613.943,731.14,613.943Z" transform="translate(0 0)" fill="#231f20"/>
    <path id="Path_5355" data-name="Path 5355" d="M520.891,616.173s175,3.031,201.273,7.274c0,0,14.146,2.829,14.146,15.359V908.787c0,6.466-4.243,13.741-13.742,14.953s-130.342,7.276-194.3,7.276-187.935-4.547-209.155-7.276c0,0-14.4-2.88-14.246-14.7s0-265.535,0-270.082,3.639-14.4,14.4-15.46S474.968,616.173,520.891,616.173Z" transform="translate(7.56 7.471)" fill="#414042"/>
    <rect id="Rectangle_3564" data-name="Rectangle 3564" width="288.269" height="82.367" rx="8.043" transform="translate(424.278 675.537)" fill="#ffbd6e"/>
    <circle id="Ellipse_719" data-name="Ellipse 719" cx="11.114" cy="11.114" r="11.114" transform="translate(360.454 708.661)" fill="#231f20"/>
    <circle id="Ellipse_720" data-name="Ellipse 720" cx="15.605" cy="15.605" r="15.605" transform="translate(483.815 880.345)" fill="#231f20"/>
    <circle id="Ellipse_721" data-name="Ellipse 721" cx="11.114" cy="11.114" r="11.114" transform="translate(360.454 680.111)" fill="#231f20"/>
    <path id="Path_5356" data-name="Path 5356" d="M340.17,650.15l-5.623,9.739h11.245Z" transform="translate(31.398 34.758)" fill="#f1f2f2"/>
    <circle id="Ellipse_722" data-name="Ellipse 722" cx="11.114" cy="11.114" r="11.114" transform="translate(360.454 737.212)" fill="#231f20"/>
    <path id="Path_5357" data-name="Path 5357" d="M340.17,693.163l5.623-9.739H334.548Z" transform="translate(31.398 61.481)" fill="#f1f2f2"/>
    <circle id="Ellipse_723" data-name="Ellipse 723" cx="11.114" cy="11.114" r="11.114" transform="translate(389.005 708.661)" fill="#231f20"/>
    <path id="Path_5358" data-name="Path 5358" d="M361.341,671.992l-9.739-5.623v11.245Z" transform="translate(45.095 47.784)" fill="#f1f2f2"/>
    <circle id="Ellipse_724" data-name="Ellipse 724" cx="11.114" cy="11.114" r="11.114" transform="translate(331.904 708.661)" fill="#231f20"/>
    <path id="Path_5359" data-name="Path 5359" d="M318.328,671.992l9.739,5.623V666.369Z" transform="translate(18.372 47.784)" fill="#f1f2f2"/>
    <path id="Path_5360" data-name="Path 5360" d="M334.816,673.669l1.72-1.72,1.863,1.863s3.906-6.212,6.426-7.227l.269.436s-5.846,6.037-6.3,9.742Z" transform="translate(31.614 47.957)" fill="#fff"/>
    <text id="DEEP_SEA_ELECTRONICS" data-name="DEEP SEA ELECTRONICS" transform="translate(424.278 667.594)" fill="#fff" font-size="11" font-family="Quicksand-Bold, Quicksand" font-weight="700"><tspan x="0" y="0">DEEP SEA ELECTRONICS</tspan></text>
    <text id="_8610" data-name="8610" transform="translate(712.106 667.594)" fill="#fff" font-size="11" font-family="Quicksand-Bold, Quicksand" font-weight="700"><tspan x="-23.254" y="0">8610</tspan></text>
    <line id="Line_232" data-name="Line 232" x1="431.385" transform="translate(312.485 781.166)" fill="none" stroke="#231f20" stroke-miterlimit="10" stroke-width="3"/>
    <circle id="Ellipse_725" data-name="Ellipse 725" cx="15.605" cy="15.605" r="15.605" transform="translate(356.546 878.6)" fill="#ed1c24"/>
    <circle id="Ellipse_726" data-name="Ellipse 726" cx="15.605" cy="15.605" r="15.605" transform="translate(420.012 880.808)" fill="#e6e7e8"/>
    <circle id="Ellipse_727" data-name="Ellipse 727" cx="15.605" cy="15.605" r="15.605" transform="translate(355.964 810.295)" fill="#231f20"/>
    <circle id="Ellipse_728" data-name="Ellipse 728" cx="15.605" cy="15.605" r="15.605" transform="translate(547.619 882.354)" fill="#e6e7e8"/>
    <circle id="Ellipse_729" data-name="Ellipse 729" cx="15.605" cy="15.605" r="15.605" transform="translate(611.585 880.808)" fill="#e6e7e8"/>
    <circle id="Ellipse_730" data-name="Ellipse 730" cx="15.605" cy="15.605" r="15.605" transform="translate(675.165 878.6)" fill="#00a651"/>
    <g id="Group_2873" data-name="Group 2873" transform="translate(364.064 885.684)">
      <path id="Path_5361" data-name="Path 5361" d="M348.629,774.314a8,8,0,0,1-2.894,3.09,8.171,8.171,0,0,1-8.312,0,7.907,7.907,0,0,1-2.883-3.09,9.43,9.43,0,0,1,0-8.59,7.915,7.915,0,0,1,2.883-3.089,8.171,8.171,0,0,1,8.312,0,8.009,8.009,0,0,1,2.894,3.089,9.329,9.329,0,0,1,0,8.59Zm-2.692-7.171a5.177,5.177,0,0,0-1.787-2.047,4.794,4.794,0,0,0-5.155-.011,4.992,4.992,0,0,0-1.763,2.047,6.922,6.922,0,0,0,0,5.775,5,5,0,0,0,1.763,2.047,4.6,4.6,0,0,0,2.584.745,4.535,4.535,0,0,0,2.571-.757,5.162,5.162,0,0,0,1.787-2.047,6.746,6.746,0,0,0,0-5.752Z" transform="translate(-333.504 -761.499)" fill="#fff"/>
    </g>
    <g id="Group_2875" data-name="Group 2875" transform="translate(550.272 891.912)">
      <path id="Path_5362" data-name="Path 5362" d="M462.683,771.973h-.956v-4.517a1.549,1.549,0,0,0-1.545-1.547h-1.15l-1.655-.956v.956h-18.1a1.549,1.549,0,0,0-1.547,1.547v.35l-.956,1.655h.956v4.731a1.548,1.548,0,0,0,1.547,1.545h.6l1.655.956v-.956h18.65a1.547,1.547,0,0,0,1.545-1.545v-.564Zm-2.5,3.285h-18.65V774.3l-1.655.956h-.6a1.068,1.068,0,0,1-1.067-1.066v-4.731h.956l-.956-1.655v-.35a1.068,1.068,0,0,1,1.067-1.068h18.1v.956l1.657-.956h1.149a1.068,1.068,0,0,1,1.066,1.068v4.517h-.956l.956,1.655v.564A1.068,1.068,0,0,1,460.182,775.258Z" transform="translate(-436.774 -764.953)" fill="#414042"/>
      <g id="Group_2874" data-name="Group 2874" transform="translate(4.383 3.246)">
        <path id="Path_5363" data-name="Path 5363" d="M443.294,771.067a.371.371,0,0,1-.114.281.359.359,0,0,1-.258.108.35.35,0,0,1-.215-.072.479.479,0,0,1-.148-.2l-.343-.8h-1.969l-.343.806a.4.4,0,0,1-.142.195.341.341,0,0,1-.207.068.317.317,0,0,1-.352-.343.448.448,0,0,1,.022-.124l1.643-3.949a.439.439,0,0,1,.161-.206.339.339,0,0,1,.236-.059.385.385,0,0,1,.222.07.377.377,0,0,1,.148.195l1.626,3.868A.507.507,0,0,1,443.294,771.067Zm-2.721-1.439h1.32l-.667-1.545Z" transform="translate(-439.205 -766.736)" fill="#414042"/>
        <path id="Path_5364" data-name="Path 5364" d="M445.306,766.9a.413.413,0,0,1,.106.292v2.389a2.006,2.006,0,0,1-.231.972,1.687,1.687,0,0,1-.647.66,1.881,1.881,0,0,1-.95.236,1.9,1.9,0,0,1-.956-.236,1.672,1.672,0,0,1-.651-.66,2,2,0,0,1-.229-.972V767.19a.385.385,0,0,1,.117-.289.416.416,0,0,1,.3-.115.386.386,0,0,1,.278.115.392.392,0,0,1,.117.289v2.389a1.137,1.137,0,0,0,.139.564.975.975,0,0,0,.375.38,1,1,0,0,0,.5.132,1.1,1.1,0,0,0,.53-.132,1,1,0,0,0,.4-.38,1.072,1.072,0,0,0,.148-.564V767.19a.434.434,0,0,1,.1-.292.347.347,0,0,1,.27-.112A.365.365,0,0,1,445.306,766.9Z" transform="translate(-437.163 -766.727)" fill="#414042"/>
        <path id="Path_5365" data-name="Path 5365" d="M447.79,766.895a.368.368,0,0,1,.112.278.354.354,0,0,1-.112.274.418.418,0,0,1-.292.1h-1.035v3.46a.376.376,0,0,1-.126.287.438.438,0,0,1-.31.115.409.409,0,0,1-.3-.115.382.382,0,0,1-.119-.287v-3.46h-1.039a.409.409,0,0,1-.29-.106.364.364,0,0,1-.112-.276.349.349,0,0,1,.115-.272.41.41,0,0,1,.287-.1H447.5A.412.412,0,0,1,447.79,766.895Z" transform="translate(-435.222 -766.723)" fill="#414042"/>
        <path id="Path_5366" data-name="Path 5366" d="M450.614,770.329a2.239,2.239,0,0,1-.8.862,2.25,2.25,0,0,1-2.3,0,2.208,2.208,0,0,1-.8-.862,2.647,2.647,0,0,1,0-2.4,2.2,2.2,0,0,1,.8-.862,2.25,2.25,0,0,1,2.3,0,2.228,2.228,0,0,1,.8.862,2.618,2.618,0,0,1,0,2.4Zm-.746-2a1.426,1.426,0,0,0-.5-.57,1.244,1.244,0,0,0-.712-.213,1.27,1.27,0,0,0-.718.209,1.377,1.377,0,0,0-.487.572,1.923,1.923,0,0,0,0,1.61,1.376,1.376,0,0,0,.487.572,1.269,1.269,0,0,0,.718.207,1.256,1.256,0,0,0,.712-.211,1.426,1.426,0,0,0,.5-.57,1.9,1.9,0,0,0,0-1.607Z" transform="translate(-433.41 -766.753)" fill="#414042"/>
      </g>
    </g>
    <path id="Path_5367" data-name="Path 5367" d="M479.847,768.347v-2.923h-4.659v7.162h4.659v-2.362l10.646,2.815v-8.089Z" transform="translate(144.349 126.956)" fill="#414042"/>
    <circle id="Ellipse_731" data-name="Ellipse 731" cx="12.845" cy="12.845" r="12.845" transform="translate(614.345 883.568)" fill="none" stroke="#ed1c24" stroke-miterlimit="10" stroke-width="0.5"/>
    <line id="Line_233" data-name="Line 233" x2="17.842" y2="18.468" transform="translate(618.073 887.367)" fill="none" stroke="#ed1c24" stroke-miterlimit="10" stroke-width="0.5"/>
    <rect id="Rectangle_3565" data-name="Rectangle 3565" width="4.286" height="20.731" transform="translate(688.627 883.839)" fill="#e6e7e8"/>
    <path id="Path_5368" data-name="Path 5368" d="M380.106,781.7v-1.534a4.752,4.752,0,0,1,.882-2.072,24.742,24.742,0,0,0,1.266-2.378,5.754,5.754,0,0,0,.5-2.531v-3.493a1.547,1.547,0,0,0-2.647-.5v-4.565a1.646,1.646,0,0,0-2.418-.921s-.229-1.65-1.5-1.65-1.379,1.534-1.379,1.534-2.533-.691-2.533,1.266c0,0-2.762-.8-2.762,1.075V776.94a5.235,5.235,0,0,0,.806,2.3,4.431,4.431,0,0,1,.575,2.456Z" transform="translate(59.482 124.63)" fill="none" stroke="#231f20" stroke-linecap="round" stroke-linejoin="round" stroke-width="0.25"/>
    <line id="Line_234" data-name="Line 234" y2="4.402" transform="translate(439.597 893.733)" fill="none" stroke="#231f20" stroke-linecap="round" stroke-linejoin="round" stroke-width="0.25"/>
    <line id="Line_235" data-name="Line 235" y2="7.376" transform="translate(437.19 888.304)" fill="none" stroke="#231f20" stroke-linecap="round" stroke-linejoin="round" stroke-width="0.25"/>
    <line id="Line_236" data-name="Line 236" y2="7.376" transform="translate(434.274 888.208)" fill="none" stroke="#231f20" stroke-linecap="round" stroke-linejoin="round" stroke-width="0.25"/>
    <line id="Line_237" data-name="Line 237" y2="6.8" transform="translate(431.723 889.455)" fill="none" stroke="#231f20" stroke-linecap="round" stroke-linejoin="round" stroke-width="0.25"/>
    <path id="Path_5369" data-name="Path 5369" d="M351.622,734.089v-3.862h-.508v-3.118h-1.287v3.523l-3.049.813v-1.287h-.543v-6.064h-1.457v6.369l-.849.509v-5.59H342.44v5.793l-.644.406v-1.625l-5.285,1.592v.88h-.644v-5.86h-1.491v5.86h-3.152v2.88H354.3v-1.219Zm-11.273-.534h-2.77v-.813h2.77Zm4.964,0h-2.77v-.813h2.77Zm5.234,0h-2.77v-.813h2.77Z" transform="translate(28.73 94.144)" fill="#f1f2f2"/>
    <circle id="Ellipse_732" data-name="Ellipse 732" cx="15.605" cy="15.605" r="15.605" transform="translate(675.165 810.295)" fill="#231f20" stroke="#fff" stroke-miterlimit="10" stroke-width="1"/>
    <path id="Path_5370" data-name="Path 5370" d="M510.395,731.253s.231-4.144,4.106-4.144,3.145,4.45,7.366,4.45,4.028-4.221,4.028-4.221" transform="translate(172.625 96.565)" fill="none" stroke="#f1f2f2" stroke-linecap="round" stroke-linejoin="round" stroke-width="1"/>
    <circle id="Ellipse_733" data-name="Ellipse 733" cx="4.654" cy="4.654" r="4.654" transform="translate(686.116 846.751)" fill="#a7a9ac"/>
    <circle id="Ellipse_734" data-name="Ellipse 734" cx="4.654" cy="4.654" r="4.654" transform="translate(474.508 858.018)" fill="#a7a9ac"/>
    <path id="Path_5371" data-name="Path 5371" d="M605.558,745.069v6.613H401.553" transform="translate(85.212 110.99)" fill="none" stroke="#f1f2f2" stroke-miterlimit="10" stroke-width="1"/>
    <circle id="Ellipse_735" data-name="Ellipse 735" cx="1.847" cy="1.847" r="1.847" transform="translate(484.918 860.825)" fill="#f1f2f2"/>
    <circle id="Ellipse_736" data-name="Ellipse 736" cx="1.847" cy="1.847" r="1.847" transform="translate(469.726 860.825)" fill="#f1f2f2"/>
    <path id="Path_5372" data-name="Path 5372" d="M437.7,758.164H337.623V737" transform="translate(33.869 104.507)" fill="none" stroke="#f1f2f2" stroke-miterlimit="10" stroke-width="1"/>
  </g>
</svg>
