<?xml version="1.0" encoding="utf-8"?>
<!-- Generator: Adobe Illustrator 23.0.0, SVG Export Plug-In . SVG Version: 6.00 Build 0)  -->
<svg version="1.1" id="Layer_1" xmlns="http://www.w3.org/2000/svg" xmlns:xlink="http://www.w3.org/1999/xlink" x="0px" y="0px"
	 viewBox="0 0 575.6 268" style="enable-background:new 0 0 575.6 268;" xml:space="preserve">
<style type="text/css">
	.st0{fill:#FFFFFF;}
</style>
<g>
	<g>
		<path class="st0" d="M29.6,70.3V38.8h11.9c2.1,0,3.7,0.1,4.8,0.3c1.5,0.3,2.8,0.7,3.9,1.5c1,0.7,1.9,1.7,2.5,3
			c0.6,1.3,1,2.7,1,4.3c0,2.7-0.9,4.9-2.6,6.8c-1.7,1.9-4.8,2.8-9.2,2.8h-8.1v12.8H29.6z M33.7,53.8h8.1c2.7,0,4.6-0.5,5.7-1.5
			c1.1-1,1.7-2.4,1.7-4.2c0-1.3-0.3-2.4-1-3.4c-0.7-0.9-1.5-1.6-2.6-1.9c-0.7-0.2-2-0.3-3.9-0.3h-8.1V53.8z"/>
		<path class="st0" d="M63.2,70.3l12.1-31.5h4.5l12.9,31.5h-4.7l-3.7-9.5H71.1l-3.5,9.5H63.2z M72.3,57.4h10.7l-3.3-8.7
			c-1-2.6-1.7-4.8-2.2-6.5c-0.4,2-1,4-1.7,6L72.3,57.4z"/>
		<path class="st0" d="M105.5,60.2l3.9-0.3c0.2,1.6,0.6,2.9,1.3,3.9c0.7,1,1.7,1.8,3.2,2.4c1.4,0.6,3,0.9,4.8,0.9
			c1.6,0,3-0.2,4.2-0.7c1.2-0.5,2.1-1.1,2.7-1.9c0.6-0.8,0.9-1.7,0.9-2.7c0-1-0.3-1.8-0.9-2.6c-0.6-0.7-1.5-1.4-2.8-1.9
			c-0.8-0.3-2.7-0.8-5.6-1.5c-2.9-0.7-4.9-1.3-6.1-2c-1.5-0.8-2.6-1.8-3.4-2.9c-0.7-1.2-1.1-2.5-1.1-3.9c0-1.6,0.5-3.1,1.4-4.5
			c0.9-1.4,2.2-2.4,4-3.1c1.7-0.7,3.7-1.1,5.8-1.1c2.3,0,4.4,0.4,6.2,1.1c1.8,0.8,3.2,1.9,4.1,3.3s1.5,3.1,1.5,5l-4,0.3
			c-0.2-2-0.9-3.5-2.2-4.5c-1.2-1-3.1-1.5-5.5-1.5c-2.5,0-4.4,0.5-5.5,1.4s-1.7,2-1.7,3.3c0,1.1,0.4,2.1,1.2,2.8
			c0.8,0.7,2.9,1.5,6.3,2.2c3.4,0.8,5.7,1.4,7,2c1.8,0.8,3.2,1.9,4.1,3.2c0.9,1.3,1.3,2.8,1.3,4.5c0,1.7-0.5,3.3-1.4,4.7
			c-1,1.5-2.3,2.6-4.1,3.5c-1.8,0.8-3.8,1.2-6.1,1.2c-2.8,0-5.2-0.4-7.2-1.2s-3.4-2.1-4.5-3.7C106.2,64.2,105.6,62.3,105.5,60.2z"/>
		<path class="st0" d="M147.4,70.3V38.8h22.8v3.7h-18.6v9.6h17.4v3.7h-17.4v10.7h19.3v3.7H147.4z"/>
		<path class="st0" d="M186.3,55c0-5.2,1.4-9.3,4.2-12.3c2.8-3,6.4-4.4,10.9-4.4c2.9,0,5.5,0.7,7.9,2.1c2.3,1.4,4.1,3.3,5.3,5.8
			c1.2,2.5,1.8,5.3,1.8,8.4c0,3.2-0.6,6-1.9,8.6c-1.3,2.5-3.1,4.4-5.5,5.7c-2.4,1.3-4.9,1.9-7.6,1.9c-3,0-5.6-0.7-7.9-2.1
			c-2.3-1.4-4.1-3.4-5.3-5.9C186.9,60.4,186.3,57.7,186.3,55z M190.6,55c0,3.8,1,6.8,3.1,9c2,2.2,4.6,3.3,7.7,3.3
			c3.1,0,5.7-1.1,7.7-3.3c2-2.2,3-5.3,3-9.4c0-2.6-0.4-4.8-1.3-6.7c-0.9-1.9-2.1-3.4-3.8-4.4s-3.5-1.6-5.6-1.6c-2.9,0-5.5,1-7.6,3
			C191.7,46.9,190.6,50.3,190.6,55z"/>
	</g>
</g>
<g>
	<g>
		<path class="st0" d="M213.4,218.7v-18.3h2.8v16.1h10.6v2.2H213.4z"/>
		<path class="st0" d="M242.8,218.7l8.2-18.3h3.1l8.8,18.3h-3.2l-2.5-5.5h-9l-2.4,5.5H242.8z M249,211.2h7.3l-2.2-5.1
			c-0.7-1.5-1.2-2.8-1.5-3.8c-0.3,1.2-0.7,2.3-1.2,3.5L249,211.2z"/>
		<path class="st0" d="M301.7,218.7v-18.3h2.8v16.1h10.6v2.2H301.7z"/>
		<path class="st0" d="M331.1,218.7l8.2-18.3h3.1l8.8,18.3H348l-2.5-5.5h-9l-2.4,5.5H331.1z M337.3,211.2h7.3l-2.2-5.1
			c-0.7-1.5-1.2-2.8-1.5-3.8c-0.3,1.2-0.7,2.3-1.2,3.5L337.3,211.2z"/>
		<path class="st0" d="M378.5,211.5v-2.1l9.1,0v6.8c-1.4,0.9-2.8,1.7-4.3,2.1c-1.5,0.5-3,0.7-4.6,0.7c-2.1,0-4-0.4-5.7-1.2
			s-3-1.9-3.9-3.3c-0.9-1.5-1.3-3.1-1.3-4.9c0-1.8,0.4-3.4,1.3-5c0.9-1.5,2.1-2.7,3.8-3.4s3.5-1.1,5.7-1.1c1.6,0,3,0.2,4.2,0.6
			c1.3,0.4,2.2,1,3,1.8s1.3,1.8,1.6,3l-2.6,0.6c-0.3-0.9-0.7-1.7-1.2-2.2c-0.5-0.5-1.2-1-2-1.3c-0.9-0.3-1.9-0.5-3-0.5
			c-1.3,0-2.4,0.2-3.4,0.5c-0.9,0.3-1.7,0.8-2.3,1.3c-0.6,0.5-1,1.2-1.4,1.8c-0.5,1.1-0.8,2.4-0.8,3.7c0,1.6,0.3,3,1,4.1
			s1.6,1.9,2.9,2.4c1.3,0.5,2.6,0.8,4,0.8c1.2,0,2.4-0.2,3.6-0.6c1.2-0.4,2.1-0.8,2.7-1.3v-3.4H378.5z"/>
		<path class="st0" d="M420.9,200.4h2.8V211c0,1.8-0.2,3.3-0.7,4.4c-0.5,1.1-1.4,2-2.6,2.6c-1.3,0.7-2.9,1-5,1c-2,0-3.7-0.3-4.9-0.9
			c-1.3-0.6-2.2-1.4-2.7-2.6c-0.5-1.1-0.8-2.6-0.8-4.6v-10.6h2.8v10.6c0,1.6,0.2,2.8,0.5,3.5c0.3,0.8,0.9,1.3,1.8,1.7
			c0.8,0.4,1.9,0.6,3.1,0.6c2.1,0,3.6-0.4,4.5-1.2c0.9-0.8,1.3-2.4,1.3-4.7V200.4z"/>
		<path class="st0" d="M443.5,218.7v-18.3h2.9l11.3,14.4v-14.4h2.7v18.3h-2.9l-11.3-14.4v14.4H443.5z"/>
		<path class="st0" d="M480.6,218.7v-18.3h2.8v18.3H480.6z"/>
		<path class="st0" d="M508.9,218.7v-16.1h-7.1v-2.2h17v2.2h-7.1v16.1H508.9z"/>
		<path class="st0" d="M532.2,218.7l8.2-18.3h3.1l8.8,18.3h-3.2l-2.5-5.5h-9l-2.4,5.5H532.2z M538.4,211.2h7.3l-2.2-5.1
			c-0.7-1.5-1.2-2.8-1.5-3.8c-0.3,1.2-0.7,2.3-1.2,3.5L538.4,211.2z"/>
	</g>
</g>
<rect x="27.7" y="164.7" class="st0" width="528" height="3"/>
<path class="st0" d="M181.5,82c0,0-4,37.6-5.2,45.6l43.5,0.6c0,0,6.6-38.7,17.5-58.6s17.2-27.2,30.5-38.7
	c13.3-11.5,34.3-13.7,43.8-12.8c9.5,1,20.3,8.4,24.8,15.8s6.4,21.7,6.4,21.7s-13.1-22.3-22.7-28.7s-21.6-6.5-33.7-3
	c-10.6,3-30.9,20.1-40,41.3s-12.6,63.2-12.6,63.2l42.8,1.1l1,2.8l-44.8,0.6l-6.1,49.3l-11.2,7.3l4.2-55.5l-44.7,2.2
	c0,0-1.8,25.4-19.7,58.3s-50.9,50.4-50.9,50.4s-40.2,22.6-72.2,6.1c0,0-2.3-1-1.8-2.2c0.5-1.1,1.5-1.1,6.1-0.1s40.6,7.3,65.6-6.4
	s38.3-26.2,49.5-50c11.2-23.8,10.6-56.2,10.6-56.2h-12.1c0,0,3.5-9.1,12.2-9.1c0,0,5.9-33.5,6.5-36.9c0.6-3.4,2.1-4.2,3.9-5.4
	S181.5,80.3,181.5,82z"/>
<g>
	<g>
		<path class="st0" d="M26.6,151.2c3.7-0.1,5-0.4,5.5-2.6c0.3-1.6,0.4-7.8,0.4-18.4v-26.3c0-6.2-0.4-7.9-5-7.9h-0.9v-1.5
			c9.1,0.2,15.8,0.3,19.8,0.3c6.6,0,14.3-0.2,23.1-0.3l0.9-1.9h1c0.2,5.3,0.7,11.1,1.3,17.5l-1.4,0.2l-0.8-4.2
			c-0.4-2.1-3.9-5-10.4-7.8c-4.5-1.9-8.6-2-13.2-2c-5,0-5,0.9-5,11.8v10.4c0,3.3,0.9,3.4,3.2,3.4h0.3c9.4,0,12.9-2.8,13.1-4.7
			l0.4-5.2h1.3c-0.1,4.3-0.1,7.8-0.1,10.6s0,6.5,0.1,10.6h-1.3l-0.4-5.2c0-0.3-1.1-1.9-3.1-3c-2.8-1.6-6.5-1.7-11.2-1.7
			c-1.8,0-2.4,0.8-2.4,3.5v11.8c0,5.8,0.3,9.4,0.6,10.4c0.5,1.8,3.2,1.9,7.9,1.9c11.8,0,22.4-5.9,23.2-9.9l1.3-4.8l1.4,0.3
			c-1.6,6.8-2.8,13.3-3.7,19.4h-1.3l-0.9-2.8c-10.1-0.4-19.4-0.7-27.8-0.7c-2.5,0-7.8,0-16.1,0.1V151.2z"/>
		<path class="st0" d="M98.1,147.8c0.4,2.2,1.8,3,5.2,3c11.1,0,21.4-5.5,22.8-9.7l2-6.1l1.4,0.3c-2.6,10.3-4.6,16.8-5.5,19.4h-1.3
			v-0.1c0-2-3-2.2-10.5-2.2h-6.7c-2,0-9.8,0.1-23.3,0.3v-1.4c3.7-0.1,5-0.4,5.5-2.6c0.3-1.6,0.4-7.8,0.4-18.4v-26.3
			c0-6.2-0.4-7.9-5-7.9h-0.9v-1.5c4,0.1,7.5,0.3,10.6,0.3c3,0,6.6-0.2,10.6-0.3V96c-3.7,0.1-4.9,0.4-5.5,2.6
			c-0.3,1.7-0.3,7.5-0.3,17.5v14.1C97.6,140.3,97.7,146.2,98.1,147.8z"/>
	</g>
</g>
<g>
	<g>
		<path class="st0" d="M240,151.3h2.6c3.2-3,10.7-17.2,21.2-42.9l6.1-14.7h1.7c2.4,6.8,5,13.5,7.7,20.2l12.9,31.6c1.7,3.9,2.4,6,6,6
			c0.3,0,0.7-0.1,1.1-0.1v1.4c-4.4-0.2-7.7-0.2-9.9-0.2c-2.1,0-5.4,0-10.1,0.2v-1.4c3.2-0.1,4.3-0.5,4.3-2.3c0-0.8-0.3-1.7-0.8-2.8
			l-5.6-13.7c-3.8-0.3-7.3-0.3-10.7-0.3c-4.6,0-8.2,0.1-11.2,0.3c-2.3,6.6-3.5,11.7-3.5,15.2c0,1.3,0.1,2.5,0.5,3.6h3.4v1.4
			c-3.8-0.2-6.6-0.2-8.2-0.2c-1.7,0-4.2,0-7.7,0.2V151.3z M266.5,130.8c3.8,0,7.2,0,10.2-0.2l-10.1-25.1
			c-4.1,8.9-7.7,17.3-10.4,25.1C259.6,130.8,263,130.8,266.5,130.8z"/>
		<path class="st0" d="M315.7,151.2c3.7-0.1,4.9-0.4,5.3-2.6c0.3-1.6,0.3-7.8,0.3-18.4v-28.1c0-5.1-0.3-6-2.4-6
			c-1.5,0-9,1.6-16.7,5.6c-2.3,1.2-2.6,2.1-2.8,6.2H298l1.3-15.6h1.4v0.1c0,1.8,2.2,2,7.2,2h43.1c1.7,0,2.7-0.5,2.8-1.8h1.3
			l-2.3,16.4l-1.5-0.2c0.2-1.5,0.3-2.8,0.3-3.7c0-2.2-0.9-3.3-3.3-4.6c-6.1-3.2-13-4.5-14.9-4.5c-2.6,0-2.8,2.6-2.8,10.3v24.9
			c0,10.2,0,16.2,0.5,17.9c0.5,1.7,2,2,5.2,2v1.4c-4.7-0.2-8.1-0.2-10.3-0.2c-2.1,0-5.6,0-10.3,0.2V151.2z"/>
		<path class="st0" d="M375.2,131.2c0,10.2,0,16.2,0.5,17.9c0.5,1.7,1.9,2,5.2,2v1.4c-4.7-0.2-8-0.2-10.2-0.2c-2.2,0-5.6,0-10.3,0.2
			v-1.4c3.7-0.1,4.9-0.4,5.3-2.6c0.3-1.6,0.3-7.8,0.3-18.4v-26.7c0-5.9-0.4-7.5-4.8-7.5h-0.8v-1.5c3.9,0.1,7.3,0.3,10.3,0.3
			c2.9,0,6.3-0.2,10.2-0.3V96c-3.7,0.1-4.7,0.4-5.2,2.6c-0.3,1.7-0.4,7.5-0.4,17.5v14.1V131.2z"/>
		<path class="st0" d="M404.4,147.8c0.4,2.2,1.7,3,5.1,3c10.8,0,20.9-5.5,22.3-9.7l2-6.1l1.3,0.3c-2.5,10.3-4.5,16.8-5.4,19.4h-1.2
			v-0.1c0-2-2.9-2.2-10.2-2.2h-6.6c-2,0-9.6,0.1-22.7,0.3v-1.4c3.7-0.1,4.9-0.4,5.3-2.6c0.3-1.6,0.4-7.8,0.4-18.4v-26.3
			c0-6.2-0.4-7.9-4.9-7.9h-0.8v-1.5c3.9,0.1,7.3,0.3,10.3,0.3c2.9,0,6.4-0.2,10.3-0.3V96c-3.7,0.1-4.8,0.4-5.3,2.6
			c-0.3,1.7-0.3,7.5-0.3,17.5v14.1C403.9,140.3,404.1,146.2,404.4,147.8z"/>
		<path class="st0" d="M455.2,147.8c0.4,2.2,1.7,3,5.1,3c10.8,0,20.9-5.5,22.3-9.7l2-6.1l1.3,0.3c-2.5,10.3-4.5,16.8-5.4,19.4h-1.2
			v-0.1c0-2-2.9-2.2-10.2-2.2h-6.6c-2,0-9.6,0.1-22.7,0.3v-1.4c3.7-0.1,4.9-0.4,5.3-2.6c0.3-1.6,0.4-7.8,0.4-18.4v-26.3
			c0-6.2-0.4-7.9-4.9-7.9h-0.8v-1.5c3.9,0.1,7.3,0.3,10.3,0.3c2.9,0,6.4-0.2,10.3-0.3V96c-3.7,0.1-4.8,0.4-5.3,2.6
			c-0.3,1.7-0.3,7.5-0.3,17.5v14.1C454.7,140.3,454.8,146.2,455.2,147.8z"/>
		<path class="st0" d="M503,147.8c-8.7-6-13.6-15-13.6-24.3c0-9.3,4.5-18.1,12.5-23.8c5.3-3.9,12.2-6,20-6c6.9,0,13.7,2,19,5.7
			c8.7,6,13.5,15,13.5,24.3c0,9.3-4.5,18.1-12.5,23.8c-5.3,3.8-12.2,6.1-20,6.1C515,153.6,508.4,151.4,503,147.8z M543.6,123.6
			c0-17.5-9.2-28.2-21.7-28.2c-12.6,0-21.7,10.9-21.7,28.2s9.1,28.2,21.7,28.2C534.4,151.8,543.6,141,543.6,123.6z"/>
	</g>
</g>
</svg>
