<svg id="Group_2314" data-name="Group 2314" xmlns="http://www.w3.org/2000/svg" width="32.732" height="43.866" viewBox="0 0 32.732 43.866">
  <path id="Path_3835" data-name="Path 3835" d="M373.132,389.58c-.349,2.551-.716,5.193-1.063,7.839h-.163c-.529-2.646-1.058-5.321-1.59-7.839L367.477,378h-5.069l-2.841,11.576c-.529,2.581-1.059,5.225-1.573,7.839h-.163c-.349-2.614-.729-5.225-1.078-7.839L354.923,378H348.8l4.906,24.785h7.377l2.5-11.259c.419-1.915.755-3.9,1.074-5.752h.161c.286,1.852.64,3.837,1.061,5.752l2.583,11.259h7.511L380.669,378h-5.707Z" transform="translate(-347.937 -358.923)" fill="#F04D4F"/>
  <path id="Path_3836" data-name="Path 3836" d="M350.574,379.751a2.165,2.165,0,0,0,2.152-1.922,5.07,5.07,0,0,1,4.286-4.195,5,5,0,0,1,5.431,2.575l0,.007a9.412,9.412,0,0,0,8.3,5.08,10.52,10.52,0,0,0,1.744-.148,9.4,9.4,0,0,0,7.871-7.978,2.168,2.168,0,1,0-4.308-.495,5.069,5.069,0,0,1-4.284,4.193,4.993,4.993,0,0,1-5.422-2.555v0l-.006-.011,0,0h0a9.577,9.577,0,0,0-17.918,3.039,2.164,2.164,0,0,0,1.909,2.4A1.9,1.9,0,0,0,350.574,379.751Z" transform="translate(-348.403 -369.207)" fill="#F04D4F"/>
</svg>
