<svg xmlns="http://www.w3.org/2000/svg" width="30.848" height="38.917" viewBox="0 0 30.848 38.917">
  <g id="Group_1970" data-name="Group 1970" transform="translate(-69.383 -400.215)">
    <path id="Path_3258" data-name="Path 3258" d="M89.353,431.988a1.4,1.4,0,0,0-.871.352H88.46l-.066-.282h-.74V436h.907v-.842l-.031-.454a1.1,1.1,0,0,0,.73.3,1.39,1.39,0,0,0,1.286-1.552C90.547,432.563,90.094,431.988,89.353,431.988Zm-.3,2.315a.754.754,0,0,1-.488-.182v-1.18a.718.718,0,0,1,.525-.257c.362,0,.532.258.532.773C89.619,434.053,89.366,434.3,89.05,434.3Z" transform="translate(-6.419 -11.163)" fill="#d0d4e6"/>
    <path id="Path_3259" data-name="Path 3259" d="M94.248,433.208c-.317-.108-.6-.178-.6-.361,0-.144.115-.23.35-.23a1.182,1.182,0,0,1,.644.246l.405-.511a1.809,1.809,0,0,0-1.078-.364c-.706,0-1.169.365-1.169.9,0,.475.435.708.81.845.315.116.618.2.618.391,0,.15-.117.246-.387.246a1.376,1.376,0,0,1-.789-.3l-.407.53a2.06,2.06,0,0,0,1.174.4c.82,0,1.257-.407,1.257-.927S94.635,433.343,94.248,433.208Z" transform="translate(-8.171 -11.163)" fill="#d0d4e6"/>
    <path id="Path_3260" data-name="Path 3260" d="M97.688,430.075a.451.451,0,1,0,.524.445A.472.472,0,0,0,97.688,430.075Z" transform="translate(-9.76 -10.49)" fill="#d0d4e6"/>
    <rect id="Rectangle_1870" data-name="Rectangle 1870" width="0.907" height="2.873" transform="translate(87.474 420.895)" fill="#d0d4e6"/>
    <path id="Path_3261" data-name="Path 3261" d="M100.231,415.639A15.424,15.424,0,1,0,81.487,430.7v4.48H78.755a1.3,1.3,0,0,0-1.3,1.3v1.345a1.3,1.3,0,0,0,1.3,1.3h12.1a1.3,1.3,0,0,0,1.3-1.3v-1.345a1.3,1.3,0,0,0-1.3-1.3H88.127V430.7A15.45,15.45,0,0,0,100.231,415.639Zm-9.372,20.8a.042.042,0,0,1,.042.042v1.345a.042.042,0,0,1-.042.042h-12.1a.042.042,0,0,1-.042-.042v-1.345a.042.042,0,0,1,.042-.042Zm-8.111-1.26v-4.257a15.5,15.5,0,0,0,4.118,0v4.257Zm2.06-5.379A14.163,14.163,0,1,1,98.97,415.639,14.18,14.18,0,0,1,84.807,429.8Z" transform="translate(0)" fill="#d0d4e6"/>
    <path id="Path_3262" data-name="Path 3262" d="M86.264,404.362A12.734,12.734,0,1,0,99,417.1,12.748,12.748,0,0,0,86.264,404.362Zm0,24.207A11.473,11.473,0,1,1,97.737,417.1,11.486,11.486,0,0,1,86.264,428.569Z" transform="translate(-1.457 -1.457)" fill="#d0d4e6"/>
    <path id="Path_3263" data-name="Path 3263" d="M94.419,413.594a.631.631,0,0,0-.82.351L92.1,417.7a2.651,2.651,0,1,0,1.17.469l1.5-3.758A.63.63,0,0,0,94.419,413.594Zm-2.692,8.117a1.387,1.387,0,1,1,1.387-1.387A1.388,1.388,0,0,1,91.727,421.71Z" transform="translate(-6.92 -4.684)" fill="#d0d4e6"/>
    <path id="Path_3264" data-name="Path 3264" d="M94.826,411.453a10.044,10.044,0,1,0-14.2,14.2.63.63,0,0,0,.891,0l1.472-1.472a.63.63,0,0,0-.891-.891L81.083,424.3a8.747,8.747,0,0,1-2.117-5.119h1.36a.631.631,0,0,0,0-1.261h-1.36a8.747,8.747,0,0,1,2.117-5.119l1.01,1.011a.63.63,0,1,0,.892-.891l-1.011-1.011a8.745,8.745,0,0,1,5.119-2.117v1.36a.631.631,0,0,0,1.261,0V409.8a8.745,8.745,0,0,1,5.118,2.117l-1.01,1.011a.63.63,0,1,0,.891.891l1.011-1.011a8.747,8.747,0,0,1,2.117,5.119H95.12a.631.631,0,0,0,0,1.261h1.36a8.75,8.75,0,0,1-2.116,5.119l-1.011-1.011a.63.63,0,0,0-.891.891l1.473,1.472a.63.63,0,0,0,.891,0A10.056,10.056,0,0,0,94.826,411.453Z" transform="translate(-2.916 -2.916)" fill="#d0d4e6"/>
  </g>
</svg>
