<svg xmlns="http://www.w3.org/2000/svg" width="42.097" height="51.319" viewBox="0 0 42.097 51.319">
  <g id="Group_2846" data-name="Group 2846" transform="translate(-9.945 -400.261)">
    <path id="Path_5213" data-name="Path 5213" d="M47.414,417.361l2.158-2.158a3.007,3.007,0,1,0-4.252-4.252l-2.3,2.3A21.043,21.043,0,0,0,35,409.866v-2.99h2a1,1,0,0,0,1-1v-2.606A3.011,3.011,0,0,0,35,400.261H26.984a3.011,3.011,0,0,0-3.007,3.007v2.606a1,1,0,0,0,1,1h2v2.99a21.054,21.054,0,0,0-8.013,3.388l-2.3-2.3a3.007,3.007,0,0,0-4.252,4.252l2.157,2.158a21.049,21.049,0,1,0,32.841,0Zm-.677-4.993a1,1,0,1,1,1.418,1.418l-2.072,2.071q-.7-.719-1.465-1.369Zm-20.755-7.5v-1.6a1,1,0,0,1,1-1H35a1,1,0,0,1,1,1v1.6Zm7.017,2v2.7a21.63,21.63,0,0,0-4.01,0v-2.7Zm-19.165,6.909a1,1,0,1,1,1.417-1.418l2.12,2.12q-.764.65-1.466,1.369Zm17.161,35.79A19.046,19.046,0,0,1,28.135,411.7a19.343,19.343,0,0,1,5.716,0,19.037,19.037,0,0,1,8.663,3.665,19.305,19.305,0,0,1,2.789,2.6,19.045,19.045,0,0,1-14.309,31.612Z" fill="#d0d4e6"/>
    <path id="Path_5214" data-name="Path 5214" d="M34.028,436.775a3.007,3.007,0,0,0,1-5.841v-7.188a1,1,0,0,0-2,0v7.188a3.007,3.007,0,0,0,1,5.841Zm0-4.009a1,1,0,1,1-1,1A1,1,0,0,1,34.028,432.766Z" transform="translate(-3.035 -3.237)" fill="#d0d4e6"/>
    <path id="Path_5215" data-name="Path 5215" d="M42.682,422.615c-.015-.018-.031-.036-.049-.054s-.039-.036-.059-.053a15.084,15.084,0,0,0-6.317-3.741,1,1,0,0,0-.568,1.923,13.073,13.073,0,0,1,4.788,2.61l-.676.676a1,1,0,1,0,1.418,1.418l.678-.678a12.909,12.909,0,0,1,3.1,7.471h-.964a1,1,0,0,0,0,2H45a12.907,12.907,0,0,1-3.1,7.47l-.678-.677A1,1,0,1,0,39.8,442.4l.678.678a12.917,12.917,0,0,1-7.471,3.1v-.964a1,1,0,1,0-2,0v.964a12.918,12.918,0,0,1-7.471-3.1l.678-.678a1,1,0,1,0-1.418-1.418l-.678.677a12.9,12.9,0,0,1-3.1-7.47h.964a1,1,0,0,0,0-2h-.964a12.9,12.9,0,0,1,3.1-7.471l.678.678a1,1,0,0,0,1.418-1.418l-.676-.676a13.07,13.07,0,0,1,4.787-2.61,1,1,0,1,0-.568-1.923,15.089,15.089,0,0,0-6.316,3.739.716.716,0,0,0-.06.055c-.018.017-.033.035-.049.053a15.011,15.011,0,0,0,0,21.151c.016.018.032.037.05.054s.035.033.053.049a15.011,15.011,0,0,0,21.15,0c.018-.015.037-.032.054-.049s.033-.035.048-.053a15.011,15.011,0,0,0,0-21.151Z" transform="translate(-1.011 -2.659)" fill="#d0d4e6"/>
    <path id="Path_5216" data-name="Path 5216" d="M34.365,420.064a1,1,0,1,0-1-1A1,1,0,0,0,34.365,420.064Z" transform="translate(-3.372 -2.563)" fill="#d0d4e6"/>
  </g>
</svg>
