<svg xmlns="http://www.w3.org/2000/svg" width="39.015" height="39.015" viewBox="0 0 39.015 39.015">
  <g id="Group_1969" data-name="Group 1969" transform="translate(-187.841 -400.546)">
    <path id="Path_3249" data-name="Path 3249" d="M225.882,423.979V411.251a4.032,4.032,0,1,0-8.063,0v12.728a6.876,6.876,0,0,0-2.608,5.413,6.641,6.641,0,1,0,13.278,0A6.879,6.879,0,0,0,225.882,423.979Zm-4.032-15.548a2.778,2.778,0,0,1,2.728,2.82v13.057a.651.651,0,0,0,.279.534,5.534,5.534,0,0,1,2.329,4.55,5.338,5.338,0,1,1-10.671,0,5.532,5.532,0,0,1,2.329-4.55.651.651,0,0,0,.279-.534V411.252A2.778,2.778,0,0,1,221.85,408.431Z" transform="translate(-9.385 -2.257)" fill="#d0d4e6"/>
    <path id="Path_3250" data-name="Path 3250" d="M223.657,434.845a3.25,3.25,0,0,0,.653-6.417V414.007a.652.652,0,0,0-1.3,0v14.421a3.25,3.25,0,0,0,.652,6.417Zm0-1.3a1.941,1.941,0,1,1,1.871-1.94A1.908,1.908,0,0,1,223.657,433.541Z" transform="translate(-11.193 -4.392)" fill="#d0d4e6"/>
    <path id="Path_3251" data-name="Path 3251" d="M204.232,414.606h3.392a.563.563,0,1,0,0-1.126h-3.392a.563.563,0,1,0,0,1.126Z" transform="translate(-5.425 -4.435)" fill="#d0d4e6"/>
    <path id="Path_3252" data-name="Path 3252" d="M204.232,419.248h3.392a.563.563,0,1,0,0-1.126h-3.392a.563.563,0,1,0,0,1.126Z" transform="translate(-5.425 -6.027)" fill="#d0d4e6"/>
    <path id="Path_3253" data-name="Path 3253" d="M204.232,423.909h3.392a.563.563,0,1,0,0-1.126h-3.392a.563.563,0,1,0,0,1.126Z" transform="translate(-5.425 -7.625)" fill="#d0d4e6"/>
    <path id="Path_3254" data-name="Path 3254" d="M207.624,428.57a.563.563,0,1,0,0-1.126h-3.392a.563.563,0,1,0,0,1.126Z" transform="translate(-5.425 -9.223)" fill="#d0d4e6"/>
    <path id="Path_3255" data-name="Path 3255" d="M207.349,400.546a19.508,19.508,0,1,0,19.507,19.508A19.508,19.508,0,0,0,207.349,400.546Zm0,37.715a18.207,18.207,0,1,1,18.207-18.207A18.207,18.207,0,0,1,207.349,438.261Z" transform="translate(0 0)" fill="#d0d4e6"/>
    <path id="Path_3256" data-name="Path 3256" d="M198.255,435.536a1.661,1.661,0,1,0,1.776,1.66A1.683,1.683,0,0,0,198.255,435.536Zm0,2.5a.845.845,0,1,1,.825-.843A.8.8,0,0,1,198.255,438.039Z" transform="translate(-2.962 -11.998)" fill="#d0d4e6"/>
    <path id="Path_3257" data-name="Path 3257" d="M204.013,443.64h1.81v-2.92h2.77V439.3h-2.77v-1.741h3.242v-1.423h-5.052Z" transform="translate(-5.545 -12.202)" fill="#d0d4e6"/>
  </g>
</svg>
