<svg xmlns="http://www.w3.org/2000/svg" width="47" height="53.684" viewBox="0 0 47 53.684">
  <g id="Group_2912" data-name="Group 2912" transform="translate(-1130 -733.316)">
    <path id="Path_5224" data-name="Path 5224" d="M350.574,379.751a2.165,2.165,0,0,0,2.152-1.922,5.07,5.07,0,0,1,4.286-4.195,5,5,0,0,1,5.431,2.575l0,.007a9.412,9.412,0,0,0,8.3,5.08,10.52,10.52,0,0,0,1.744-.148,9.4,9.4,0,0,0,7.871-7.978,2.168,2.168,0,1,0-4.308-.495,5.069,5.069,0,0,1-4.284,4.193,4.993,4.993,0,0,1-5.422-2.555v0l-.006-.011,0,0h0a9.577,9.577,0,0,0-17.918,3.039,2.164,2.164,0,0,0,1.909,2.4A1.9,1.9,0,0,0,350.574,379.751Z" transform="translate(781.965 364.109)" fill="#FFBD6E"/>
    <text id="VA" transform="translate(1130 778)" fill="#FFBD6E" font-size="36" font-family="Quicksand-Bold, Quicksand" font-weight="700"><tspan x="0" y="0">VA</tspan></text>
  </g>
</svg>
