<svg id="Group_2312" data-name="Group 2312" xmlns="http://www.w3.org/2000/svg" width="31.883" height="43.745" viewBox="0 0 31.883 43.745">
  <path id="Path_3832" data-name="Path 3832" d="M535.306,612.522c-.753,2.7-1.311,5.2-2.113,7.925h-.16c-.8-2.728-1.326-5.224-2.111-7.925L527.744,601h-6.3l7.962,24.717h7.155L544.507,601h-6.091Z" transform="translate(-516.061 -581.976)" fill="#FFBD6E"/>
  <path id="Path_3833" data-name="Path 3833" d="M548.921,593.765a2.159,2.159,0,0,0-2.394,1.9,5.237,5.237,0,0,1-9.682,1.633h0l0-.007,0-.009h0a9.551,9.551,0,0,0-17.869,3.03,2.153,2.153,0,0,0,1.884,2.379,1.858,1.858,0,0,0,.266.017,2.177,2.177,0,0,0,2.146-1.882,5.231,5.231,0,0,1,9.69-1.637l0,0a9.39,9.39,0,0,0,8.273,5.068,10.477,10.477,0,0,0,1.739-.149,9.38,9.38,0,0,0,7.852-7.953A2.162,2.162,0,0,0,548.921,593.765Z" transform="translate(-518.953 -592.207)" fill="#FFBD6E"/>
</svg>
