<svg id="q-3b-warning" xmlns="http://www.w3.org/2000/svg" width="27.814" height="24.785" viewBox="0 0 27.814 24.785">
  <path id="Path_5442" data-name="Path 5442" d="M424.322,237.664,414.246,255.4a3.565,3.565,0,0,0,3.224,5.239h20.554a3.565,3.565,0,0,0,3.224-5.239l-10.075-17.733C429.158,235.245,425.535,235.245,424.322,237.664Z" transform="translate(-413.84 -235.85)" fill="#fcbc6d"/>
  <g id="Group_2896" data-name="Group 2896" transform="translate(12.094 5.038)">
    <path id="Path_5443" data-name="Path 5443" d="M417.244,253.22c-.4-.4-.4-.4-.4-1.209v-.4a1.481,1.481,0,0,1,.4-1.209c.4-.4.4-.4.806-.4h.4c.4,0,.806,0,.806.4.4.4.4.4.4,1.209v.4a1.481,1.481,0,0,1-.4,1.209c-.4.4-.4.4-.806.4h-.4C417.651,253.623,417.244,253.623,417.244,253.22Zm.407-5.642-.81-8.866a1.618,1.618,0,1,1,3.224,0l-.806,8.866c0,.806-.4.806-.806.806C417.651,248.384,417.651,247.981,417.651,247.578Z" transform="translate(-416.841 -237.1)" fill="#494d56"/>
  </g>
</svg>
